%TF.GenerationSoftware,KiCad,Pcbnew,(5.1.9)-1*%
%TF.CreationDate,2021-01-05T22:41:02+01:00*%
%TF.ProjectId,AS3340,41533333-3430-42e6-9b69-6361645f7063,rev?*%
%TF.SameCoordinates,Original*%
%TF.FileFunction,Soldermask,Bot*%
%TF.FilePolarity,Negative*%
%FSLAX46Y46*%
G04 Gerber Fmt 4.6, Leading zero omitted, Abs format (unit mm)*
G04 Created by KiCad (PCBNEW (5.1.9)-1) date 2021-01-05 22:41:02*
%MOMM*%
%LPD*%
G01*
G04 APERTURE LIST*
%ADD10C,5.600000*%
%ADD11O,1.950000X1.700000*%
%ADD12C,1.600000*%
%ADD13C,1.700000*%
%ADD14O,1.600000X2.400000*%
%ADD15R,1.600000X2.400000*%
%ADD16C,1.440000*%
%ADD17O,1.600000X1.600000*%
%ADD18O,1.700000X1.950000*%
%ADD19O,1.700000X2.000000*%
%ADD20O,2.000000X1.700000*%
%ADD21O,2.200000X2.200000*%
%ADD22R,2.200000X2.200000*%
%ADD23R,1.600000X1.600000*%
G04 APERTURE END LIST*
D10*
%TO.C,REF\u002A\u002A*%
X156845000Y-41910000D03*
%TD*%
%TO.C,REF\u002A\u002A*%
X78486000Y-86868000D03*
%TD*%
%TO.C,REF\u002A\u002A*%
X78486000Y-53086000D03*
%TD*%
D11*
%TO.C,J301*%
X156210000Y-86280000D03*
X156210000Y-83780000D03*
G36*
G01*
X155485000Y-80430000D02*
X156935000Y-80430000D01*
G75*
G02*
X157185000Y-80680000I0J-250000D01*
G01*
X157185000Y-81880000D01*
G75*
G02*
X156935000Y-82130000I-250000J0D01*
G01*
X155485000Y-82130000D01*
G75*
G02*
X155235000Y-81880000I0J250000D01*
G01*
X155235000Y-80680000D01*
G75*
G02*
X155485000Y-80430000I250000J0D01*
G01*
G37*
%TD*%
D12*
%TO.C,C302*%
X121920000Y-81280000D03*
X121920000Y-76280000D03*
%TD*%
%TO.C,C301*%
X118110000Y-81200000D03*
X118110000Y-76200000D03*
%TD*%
D13*
%TO.C,J901*%
X90170000Y-41910000D03*
X87630000Y-41910000D03*
X85090000Y-41910000D03*
X82550000Y-41910000D03*
X80010000Y-41910000D03*
X90170000Y-44450000D03*
X87630000Y-44450000D03*
X85090000Y-44450000D03*
X82550000Y-44450000D03*
G36*
G01*
X80610000Y-45300000D02*
X79410000Y-45300000D01*
G75*
G02*
X79160000Y-45050000I0J250000D01*
G01*
X79160000Y-43850000D01*
G75*
G02*
X79410000Y-43600000I250000J0D01*
G01*
X80610000Y-43600000D01*
G75*
G02*
X80860000Y-43850000I0J-250000D01*
G01*
X80860000Y-45050000D01*
G75*
G02*
X80610000Y-45300000I-250000J0D01*
G01*
G37*
%TD*%
D14*
%TO.C,U101*%
X139700000Y-62230000D03*
X147320000Y-69850000D03*
X142240000Y-62230000D03*
X144780000Y-69850000D03*
X144780000Y-62230000D03*
X142240000Y-69850000D03*
X147320000Y-62230000D03*
D15*
X139700000Y-69850000D03*
%TD*%
D14*
%TO.C,U2*%
X127000000Y-62230000D03*
X134620000Y-69850000D03*
X129540000Y-62230000D03*
X132080000Y-69850000D03*
X132080000Y-62230000D03*
X129540000Y-69850000D03*
X134620000Y-62230000D03*
D15*
X127000000Y-69850000D03*
%TD*%
D14*
%TO.C,U1*%
X104140000Y-62230000D03*
X121920000Y-69850000D03*
X106680000Y-62230000D03*
X119380000Y-69850000D03*
X109220000Y-62230000D03*
X116840000Y-69850000D03*
X111760000Y-62230000D03*
X114300000Y-69850000D03*
X114300000Y-62230000D03*
X111760000Y-69850000D03*
X116840000Y-62230000D03*
X109220000Y-69850000D03*
X119380000Y-62230000D03*
X106680000Y-69850000D03*
X121920000Y-62230000D03*
D15*
X104140000Y-69850000D03*
%TD*%
D16*
%TO.C,RV1*%
X91440000Y-76835000D03*
X93980000Y-76835000D03*
X96520000Y-76835000D03*
%TD*%
D17*
%TO.C,R201*%
X147320000Y-58420000D03*
D12*
X147320000Y-48260000D03*
%TD*%
D17*
%TO.C,R103*%
X114300000Y-86360000D03*
D12*
X114300000Y-76200000D03*
%TD*%
D17*
%TO.C,R102*%
X143510000Y-58420000D03*
D12*
X143510000Y-48260000D03*
%TD*%
D17*
%TO.C,R101*%
X143510000Y-83820000D03*
D12*
X143510000Y-73660000D03*
%TD*%
D17*
%TO.C,R9*%
X101600000Y-58420000D03*
D12*
X101600000Y-48260000D03*
%TD*%
D17*
%TO.C,R8*%
X105410000Y-58420000D03*
D12*
X105410000Y-48260000D03*
%TD*%
D17*
%TO.C,R7*%
X97790000Y-60325000D03*
D12*
X97790000Y-50165000D03*
%TD*%
D17*
%TO.C,R6*%
X129540000Y-76200000D03*
D12*
X129540000Y-86360000D03*
%TD*%
D17*
%TO.C,R5*%
X109220000Y-48260000D03*
D12*
X109220000Y-58420000D03*
%TD*%
D17*
%TO.C,R4*%
X116840000Y-58420000D03*
D12*
X116840000Y-48260000D03*
%TD*%
D17*
%TO.C,R3*%
X113030000Y-58420000D03*
D12*
X113030000Y-48260000D03*
%TD*%
D17*
%TO.C,R2*%
X106680000Y-76200000D03*
D12*
X106680000Y-86360000D03*
%TD*%
D17*
%TO.C,R1*%
X102870000Y-86360000D03*
D12*
X102870000Y-76200000D03*
%TD*%
D18*
%TO.C,J202*%
X149780000Y-41910000D03*
X147280000Y-41910000D03*
G36*
G01*
X143930000Y-42635000D02*
X143930000Y-41185000D01*
G75*
G02*
X144180000Y-40935000I250000J0D01*
G01*
X145380000Y-40935000D01*
G75*
G02*
X145630000Y-41185000I0J-250000D01*
G01*
X145630000Y-42635000D01*
G75*
G02*
X145380000Y-42885000I-250000J0D01*
G01*
X144180000Y-42885000D01*
G75*
G02*
X143930000Y-42635000I0J250000D01*
G01*
G37*
%TD*%
D19*
%TO.C,J201*%
X138390000Y-41910000D03*
G36*
G01*
X135040000Y-42660000D02*
X135040000Y-41160000D01*
G75*
G02*
X135290000Y-40910000I250000J0D01*
G01*
X136490000Y-40910000D01*
G75*
G02*
X136740000Y-41160000I0J-250000D01*
G01*
X136740000Y-42660000D01*
G75*
G02*
X136490000Y-42910000I-250000J0D01*
G01*
X135290000Y-42910000D01*
G75*
G02*
X135040000Y-42660000I0J250000D01*
G01*
G37*
%TD*%
D18*
%TO.C,J102*%
X129460000Y-41910000D03*
X126960000Y-41910000D03*
G36*
G01*
X123610000Y-42635000D02*
X123610000Y-41185000D01*
G75*
G02*
X123860000Y-40935000I250000J0D01*
G01*
X125060000Y-40935000D01*
G75*
G02*
X125310000Y-41185000I0J-250000D01*
G01*
X125310000Y-42635000D01*
G75*
G02*
X125060000Y-42885000I-250000J0D01*
G01*
X123860000Y-42885000D01*
G75*
G02*
X123610000Y-42635000I0J250000D01*
G01*
G37*
%TD*%
D20*
%TO.C,J101*%
X156210000Y-73620000D03*
G36*
G01*
X155460000Y-70270000D02*
X156960000Y-70270000D01*
G75*
G02*
X157210000Y-70520000I0J-250000D01*
G01*
X157210000Y-71720000D01*
G75*
G02*
X156960000Y-71970000I-250000J0D01*
G01*
X155460000Y-71970000D01*
G75*
G02*
X155210000Y-71720000I0J250000D01*
G01*
X155210000Y-70520000D01*
G75*
G02*
X155460000Y-70270000I250000J0D01*
G01*
G37*
%TD*%
D18*
%TO.C,J4*%
X109140000Y-41910000D03*
X106640000Y-41910000D03*
G36*
G01*
X103290000Y-42635000D02*
X103290000Y-41185000D01*
G75*
G02*
X103540000Y-40935000I250000J0D01*
G01*
X104740000Y-40935000D01*
G75*
G02*
X104990000Y-41185000I0J-250000D01*
G01*
X104990000Y-42635000D01*
G75*
G02*
X104740000Y-42885000I-250000J0D01*
G01*
X103540000Y-42885000D01*
G75*
G02*
X103290000Y-42635000I0J250000D01*
G01*
G37*
%TD*%
D19*
%TO.C,J3*%
X118070000Y-41910000D03*
G36*
G01*
X114720000Y-42660000D02*
X114720000Y-41160000D01*
G75*
G02*
X114970000Y-40910000I250000J0D01*
G01*
X116170000Y-40910000D01*
G75*
G02*
X116420000Y-41160000I0J-250000D01*
G01*
X116420000Y-42660000D01*
G75*
G02*
X116170000Y-42910000I-250000J0D01*
G01*
X114970000Y-42910000D01*
G75*
G02*
X114720000Y-42660000I0J250000D01*
G01*
G37*
%TD*%
D20*
%TO.C,J2*%
X156210000Y-53300000D03*
G36*
G01*
X155460000Y-49950000D02*
X156960000Y-49950000D01*
G75*
G02*
X157210000Y-50200000I0J-250000D01*
G01*
X157210000Y-51400000D01*
G75*
G02*
X156960000Y-51650000I-250000J0D01*
G01*
X155460000Y-51650000D01*
G75*
G02*
X155210000Y-51400000I0J250000D01*
G01*
X155210000Y-50200000D01*
G75*
G02*
X155460000Y-49950000I250000J0D01*
G01*
G37*
%TD*%
%TO.C,J1*%
X156210000Y-63460000D03*
G36*
G01*
X155460000Y-60110000D02*
X156960000Y-60110000D01*
G75*
G02*
X157210000Y-60360000I0J-250000D01*
G01*
X157210000Y-61560000D01*
G75*
G02*
X156960000Y-61810000I-250000J0D01*
G01*
X155460000Y-61810000D01*
G75*
G02*
X155210000Y-61560000I0J250000D01*
G01*
X155210000Y-60360000D01*
G75*
G02*
X155460000Y-60110000I250000J0D01*
G01*
G37*
%TD*%
D21*
%TO.C,D902*%
X85598000Y-68072000D03*
D22*
X85598000Y-57912000D03*
%TD*%
D21*
%TO.C,D901*%
X93472000Y-68072000D03*
D22*
X93472000Y-57912000D03*
%TD*%
D12*
%TO.C,C902*%
X85638000Y-52070000D03*
D23*
X88138000Y-52070000D03*
%TD*%
D12*
%TO.C,C901*%
X93686000Y-52070000D03*
D23*
X91186000Y-52070000D03*
%TD*%
D12*
%TO.C,C102*%
X147320000Y-73740000D03*
X147320000Y-78740000D03*
%TD*%
%TO.C,C101*%
X139700000Y-58340000D03*
X139700000Y-53340000D03*
%TD*%
%TO.C,C4*%
X134620000Y-73660000D03*
X134620000Y-78660000D03*
%TD*%
%TO.C,C3*%
X127000000Y-58420000D03*
X127000000Y-53420000D03*
%TD*%
%TO.C,C2*%
X120650000Y-53420000D03*
X120650000Y-58420000D03*
%TD*%
%TO.C,C1*%
X99060000Y-40085000D03*
X99060000Y-45085000D03*
%TD*%
M02*
