M48
; DRILL file {KiCad (5.1.9)-1} date 01/05/21 22:41:12
; FORMAT={-:-/ absolute / inch / decimal}
; #@! TF.CreationDate,2021-01-05T22:41:12+01:00
; #@! TF.GenerationSoftware,Kicad,Pcbnew,(5.1.9)-1
; #@! TF.FileFunction,Plated,1,2,PTH
FMAT,2
INCH
T1C0.0315
T2C0.0374
T3C0.0394
T4C0.0433
T5C0.1260
%
G90
G05
T1
X3.3716Y-2.05
X3.47Y-2.05
X3.59Y-2.05
X3.6Y-3.025
X3.6884Y-2.05
X3.7Y-3.025
X3.8Y-3.025
X3.85Y-1.975
X3.85Y-2.375
X3.9Y-1.5781
X3.9Y-1.775
X4.0Y-1.9
X4.0Y-2.3
X4.05Y-3.0
X4.05Y-3.4
X4.1Y-2.45
X4.1Y-2.75
X4.15Y-1.9
X4.15Y-2.3
X4.2Y-2.45
X4.2Y-2.75
X4.2Y-3.0
X4.2Y-3.4
X4.3Y-1.9
X4.3Y-2.3
X4.3Y-2.45
X4.3Y-2.75
X4.4Y-2.45
X4.4Y-2.75
X4.45Y-1.9
X4.45Y-2.3
X4.5Y-2.45
X4.5Y-2.75
X4.5Y-3.0
X4.5Y-3.4
X4.6Y-1.9
X4.6Y-2.3
X4.6Y-2.45
X4.6Y-2.75
X4.65Y-3.0
X4.65Y-3.1969
X4.7Y-2.45
X4.7Y-2.75
X4.75Y-2.1031
X4.75Y-2.3
X4.8Y-2.45
X4.8Y-2.75
X4.8Y-3.0031
X4.8Y-3.2
X5.0Y-2.1031
X5.0Y-2.3
X5.0Y-2.45
X5.0Y-2.75
X5.1Y-2.45
X5.1Y-2.75
X5.1Y-3.0
X5.1Y-3.4
X5.2Y-2.45
X5.2Y-2.75
X5.3Y-2.45
X5.3Y-2.75
X5.3Y-2.9
X5.3Y-3.0969
X5.5Y-2.1
X5.5Y-2.2969
X5.5Y-2.45
X5.5Y-2.75
X5.6Y-2.45
X5.6Y-2.75
X5.65Y-1.9
X5.65Y-2.3
X5.65Y-2.9
X5.65Y-3.3
X5.7Y-2.45
X5.7Y-2.75
X5.8Y-1.9
X5.8Y-2.3
X5.8Y-2.45
X5.8Y-2.75
X5.8Y-2.9031
X5.8Y-3.1
T2
X4.1Y-1.65
X4.1984Y-1.65
X4.2969Y-1.65
X4.9Y-1.65
X4.9984Y-1.65
X5.0969Y-1.65
X5.7Y-1.65
X5.7984Y-1.65
X5.8969Y-1.65
X6.15Y-3.2
X6.15Y-3.2984
X6.15Y-3.3969
T3
X3.15Y-1.65
X3.15Y-1.75
X3.25Y-1.65
X3.25Y-1.75
X3.35Y-1.65
X3.35Y-1.75
X3.45Y-1.65
X3.45Y-1.75
X3.55Y-1.65
X3.55Y-1.75
X4.55Y-1.65
X4.6484Y-1.65
X5.35Y-1.65
X5.4484Y-1.65
X6.15Y-2.0
X6.15Y-2.0984
X6.15Y-2.4
X6.15Y-2.4984
X6.15Y-2.8
X6.15Y-2.8984
T4
X3.37Y-2.28
X3.37Y-2.68
X3.68Y-2.28
X3.68Y-2.68
T5
X3.09Y-2.09
X3.09Y-3.42
X6.175Y-1.65
T0
M30
