%TF.GenerationSoftware,KiCad,Pcbnew,(5.1.9)-1*%
%TF.CreationDate,2021-01-10T17:22:18+01:00*%
%TF.ProjectId,Stripboard,53747269-7062-46f6-9172-642e6b696361,rev?*%
%TF.SameCoordinates,Original*%
%TF.FileFunction,Legend,Bot*%
%TF.FilePolarity,Positive*%
%FSLAX46Y46*%
G04 Gerber Fmt 4.6, Leading zero omitted, Abs format (unit mm)*
G04 Created by KiCad (PCBNEW (5.1.9)-1) date 2021-01-10 17:22:18*
%MOMM*%
%LPD*%
G01*
G04 APERTURE LIST*
%ADD10C,0.150000*%
%ADD11C,0.120000*%
G04 APERTURE END LIST*
D10*
X131619047Y-150074380D02*
X131619047Y-150788666D01*
X131666666Y-150931523D01*
X131761904Y-151026761D01*
X131904761Y-151074380D01*
X132000000Y-151074380D01*
X130666666Y-151074380D02*
X131142857Y-151074380D01*
X131142857Y-150074380D01*
X129761904Y-150979142D02*
X129809523Y-151026761D01*
X129952380Y-151074380D01*
X130047619Y-151074380D01*
X130190476Y-151026761D01*
X130285714Y-150931523D01*
X130333333Y-150836285D01*
X130380952Y-150645809D01*
X130380952Y-150502952D01*
X130333333Y-150312476D01*
X130285714Y-150217238D01*
X130190476Y-150122000D01*
X130047619Y-150074380D01*
X129952380Y-150074380D01*
X129809523Y-150122000D01*
X129761904Y-150169619D01*
X129047619Y-150074380D02*
X129047619Y-150788666D01*
X129095238Y-150931523D01*
X129190476Y-151026761D01*
X129333333Y-151074380D01*
X129428571Y-151074380D01*
X128095238Y-151074380D02*
X128571428Y-151074380D01*
X128571428Y-150074380D01*
X127190476Y-150979142D02*
X127238095Y-151026761D01*
X127380952Y-151074380D01*
X127476190Y-151074380D01*
X127619047Y-151026761D01*
X127714285Y-150931523D01*
X127761904Y-150836285D01*
X127809523Y-150645809D01*
X127809523Y-150502952D01*
X127761904Y-150312476D01*
X127714285Y-150217238D01*
X127619047Y-150122000D01*
X127476190Y-150074380D01*
X127380952Y-150074380D01*
X127238095Y-150122000D01*
X127190476Y-150169619D01*
X126476190Y-150074380D02*
X126476190Y-150788666D01*
X126523809Y-150931523D01*
X126619047Y-151026761D01*
X126761904Y-151074380D01*
X126857142Y-151074380D01*
X125523809Y-151074380D02*
X126000000Y-151074380D01*
X126000000Y-150074380D01*
X124619047Y-150979142D02*
X124666666Y-151026761D01*
X124809523Y-151074380D01*
X124904761Y-151074380D01*
X125047619Y-151026761D01*
X125142857Y-150931523D01*
X125190476Y-150836285D01*
X125238095Y-150645809D01*
X125238095Y-150502952D01*
X125190476Y-150312476D01*
X125142857Y-150217238D01*
X125047619Y-150122000D01*
X124904761Y-150074380D01*
X124809523Y-150074380D01*
X124666666Y-150122000D01*
X124619047Y-150169619D01*
X123904761Y-150074380D02*
X123904761Y-150788666D01*
X123952380Y-150931523D01*
X124047619Y-151026761D01*
X124190476Y-151074380D01*
X124285714Y-151074380D01*
X122952380Y-151074380D02*
X123428571Y-151074380D01*
X123428571Y-150074380D01*
X122047619Y-150979142D02*
X122095238Y-151026761D01*
X122238095Y-151074380D01*
X122333333Y-151074380D01*
X122476190Y-151026761D01*
X122571428Y-150931523D01*
X122619047Y-150836285D01*
X122666666Y-150645809D01*
X122666666Y-150502952D01*
X122619047Y-150312476D01*
X122571428Y-150217238D01*
X122476190Y-150122000D01*
X122333333Y-150074380D01*
X122238095Y-150074380D01*
X122095238Y-150122000D01*
X122047619Y-150169619D01*
X170560952Y-143327428D02*
X169799047Y-143327428D01*
X170180000Y-143708380D02*
X170180000Y-142946476D01*
X175640952Y-143327428D02*
X174879047Y-143327428D01*
X171958095Y-143756000D02*
X171862857Y-143803619D01*
X171720000Y-143803619D01*
X171577142Y-143756000D01*
X171481904Y-143660761D01*
X171434285Y-143565523D01*
X171386666Y-143375047D01*
X171386666Y-143232190D01*
X171434285Y-143041714D01*
X171481904Y-142946476D01*
X171577142Y-142851238D01*
X171720000Y-142803619D01*
X171815238Y-142803619D01*
X171958095Y-142851238D01*
X172005714Y-142898857D01*
X172005714Y-143232190D01*
X171815238Y-143232190D01*
X172434285Y-142803619D02*
X172434285Y-143803619D01*
X173005714Y-142803619D01*
X173005714Y-143803619D01*
X173481904Y-142803619D02*
X173481904Y-143803619D01*
X173720000Y-143803619D01*
X173862857Y-143756000D01*
X173958095Y-143660761D01*
X174005714Y-143565523D01*
X174053333Y-143375047D01*
X174053333Y-143232190D01*
X174005714Y-143041714D01*
X173958095Y-142946476D01*
X173862857Y-142851238D01*
X173720000Y-142803619D01*
X173481904Y-142803619D01*
X84200952Y-142819428D02*
X83439047Y-142819428D01*
X83820000Y-143200380D02*
X83820000Y-142438476D01*
X79120952Y-142819428D02*
X78359047Y-142819428D01*
X80518095Y-143248000D02*
X80422857Y-143295619D01*
X80280000Y-143295619D01*
X80137142Y-143248000D01*
X80041904Y-143152761D01*
X79994285Y-143057523D01*
X79946666Y-142867047D01*
X79946666Y-142724190D01*
X79994285Y-142533714D01*
X80041904Y-142438476D01*
X80137142Y-142343238D01*
X80280000Y-142295619D01*
X80375238Y-142295619D01*
X80518095Y-142343238D01*
X80565714Y-142390857D01*
X80565714Y-142724190D01*
X80375238Y-142724190D01*
X80994285Y-142295619D02*
X80994285Y-143295619D01*
X81565714Y-142295619D01*
X81565714Y-143295619D01*
X82041904Y-142295619D02*
X82041904Y-143295619D01*
X82280000Y-143295619D01*
X82422857Y-143248000D01*
X82518095Y-143152761D01*
X82565714Y-143057523D01*
X82613333Y-142867047D01*
X82613333Y-142724190D01*
X82565714Y-142533714D01*
X82518095Y-142438476D01*
X82422857Y-142343238D01*
X82280000Y-142295619D01*
X82041904Y-142295619D01*
X80518095Y-60444000D02*
X80422857Y-60491619D01*
X80280000Y-60491619D01*
X80137142Y-60444000D01*
X80041904Y-60348761D01*
X79994285Y-60253523D01*
X79946666Y-60063047D01*
X79946666Y-59920190D01*
X79994285Y-59729714D01*
X80041904Y-59634476D01*
X80137142Y-59539238D01*
X80280000Y-59491619D01*
X80375238Y-59491619D01*
X80518095Y-59539238D01*
X80565714Y-59586857D01*
X80565714Y-59920190D01*
X80375238Y-59920190D01*
X80994285Y-59491619D02*
X80994285Y-60491619D01*
X81565714Y-59491619D01*
X81565714Y-60491619D01*
X82041904Y-59491619D02*
X82041904Y-60491619D01*
X82280000Y-60491619D01*
X82422857Y-60444000D01*
X82518095Y-60348761D01*
X82565714Y-60253523D01*
X82613333Y-60063047D01*
X82613333Y-59920190D01*
X82565714Y-59729714D01*
X82518095Y-59634476D01*
X82422857Y-59539238D01*
X82280000Y-59491619D01*
X82041904Y-59491619D01*
X84200952Y-60015428D02*
X83439047Y-60015428D01*
X83820000Y-60396380D02*
X83820000Y-59634476D01*
X79120952Y-60015428D02*
X78359047Y-60015428D01*
X171958095Y-60444000D02*
X171862857Y-60491619D01*
X171720000Y-60491619D01*
X171577142Y-60444000D01*
X171481904Y-60348761D01*
X171434285Y-60253523D01*
X171386666Y-60063047D01*
X171386666Y-59920190D01*
X171434285Y-59729714D01*
X171481904Y-59634476D01*
X171577142Y-59539238D01*
X171720000Y-59491619D01*
X171815238Y-59491619D01*
X171958095Y-59539238D01*
X172005714Y-59586857D01*
X172005714Y-59920190D01*
X171815238Y-59920190D01*
X172434285Y-59491619D02*
X172434285Y-60491619D01*
X173005714Y-59491619D01*
X173005714Y-60491619D01*
X173481904Y-59491619D02*
X173481904Y-60491619D01*
X173720000Y-60491619D01*
X173862857Y-60444000D01*
X173958095Y-60348761D01*
X174005714Y-60253523D01*
X174053333Y-60063047D01*
X174053333Y-59920190D01*
X174005714Y-59729714D01*
X173958095Y-59634476D01*
X173862857Y-59539238D01*
X173720000Y-59491619D01*
X173481904Y-59491619D01*
X175640952Y-60015428D02*
X174879047Y-60015428D01*
X170560952Y-60015428D02*
X169799047Y-60015428D01*
X170180000Y-60396380D02*
X170180000Y-59634476D01*
D11*
X171450000Y-60960000D02*
X171450000Y-142240000D01*
X173990000Y-142240000D02*
X173990000Y-60960000D01*
X82550000Y-60960000D02*
X82550000Y-142240000D01*
X80010000Y-142240000D02*
X80010000Y-60960000D01*
X167640000Y-140970000D02*
X86360000Y-140970000D01*
X86360000Y-128270000D02*
X167640000Y-128270000D01*
X167640000Y-115570000D02*
X86360000Y-115570000D01*
X86360000Y-102870000D02*
X167640000Y-102870000D01*
X167640000Y-90170000D02*
X86360000Y-90170000D01*
X86360000Y-77470000D02*
X167640000Y-77470000D01*
X86360000Y-64770000D02*
X167640000Y-64770000D01*
X147320000Y-52070000D02*
X147320000Y-148590000D01*
X127000000Y-148590000D02*
X127000000Y-52070000D01*
X106680000Y-52070000D02*
X106680000Y-148590000D01*
M02*
