%TF.GenerationSoftware,KiCad,Pcbnew,(5.1.9)-1*%
%TF.CreationDate,2021-01-10T17:22:18+01:00*%
%TF.ProjectId,Stripboard,53747269-7062-46f6-9172-642e6b696361,rev?*%
%TF.SameCoordinates,Original*%
%TF.FileFunction,Legend,Top*%
%TF.FilePolarity,Positive*%
%FSLAX46Y46*%
G04 Gerber Fmt 4.6, Leading zero omitted, Abs format (unit mm)*
G04 Created by KiCad (PCBNEW (5.1.9)-1) date 2021-01-10 17:22:18*
%MOMM*%
%LPD*%
G01*
G04 APERTURE LIST*
%ADD10C,0.120000*%
%ADD11C,0.150000*%
G04 APERTURE END LIST*
D10*
X106680000Y-148590000D02*
X106680000Y-52070000D01*
X147320000Y-52070000D02*
X147320000Y-148590000D01*
X127000000Y-52070000D02*
X127000000Y-148590000D01*
%TO.C,38*%
X86330000Y-148650000D02*
X167700000Y-148650000D01*
X86330000Y-145990000D02*
X167700000Y-145990000D01*
%TO.C,36*%
X86330000Y-143570000D02*
X167700000Y-143570000D01*
X86330000Y-140910000D02*
X167700000Y-140910000D01*
%TO.C,37*%
X86330000Y-146110000D02*
X167700000Y-146110000D01*
X86330000Y-143450000D02*
X167700000Y-143450000D01*
%TO.C,29*%
X86330000Y-125790000D02*
X167700000Y-125790000D01*
X86330000Y-123130000D02*
X167700000Y-123130000D01*
%TO.C,34*%
X86330000Y-138490000D02*
X167700000Y-138490000D01*
X86330000Y-135830000D02*
X167700000Y-135830000D01*
%TO.C,32*%
X86330000Y-133410000D02*
X167700000Y-133410000D01*
X86330000Y-130750000D02*
X167700000Y-130750000D01*
%TO.C,31*%
X86330000Y-130870000D02*
X167700000Y-130870000D01*
X86330000Y-128210000D02*
X167700000Y-128210000D01*
%TO.C,33*%
X86330000Y-135950000D02*
X167700000Y-135950000D01*
X86330000Y-133290000D02*
X167700000Y-133290000D01*
%TO.C,30*%
X86330000Y-128330000D02*
X167700000Y-128330000D01*
X86330000Y-125670000D02*
X167700000Y-125670000D01*
%TO.C,35*%
X86330000Y-141030000D02*
X167700000Y-141030000D01*
X86330000Y-138370000D02*
X167700000Y-138370000D01*
%TO.C,22*%
X86330000Y-108010000D02*
X167700000Y-108010000D01*
X86330000Y-105350000D02*
X167700000Y-105350000D01*
%TO.C,27*%
X86330000Y-120710000D02*
X167700000Y-120710000D01*
X86330000Y-118050000D02*
X167700000Y-118050000D01*
%TO.C,25*%
X86330000Y-115630000D02*
X167700000Y-115630000D01*
X86330000Y-112970000D02*
X167700000Y-112970000D01*
%TO.C,24*%
X86330000Y-113090000D02*
X167700000Y-113090000D01*
X86330000Y-110430000D02*
X167700000Y-110430000D01*
%TO.C,26*%
X86330000Y-118170000D02*
X167700000Y-118170000D01*
X86330000Y-115510000D02*
X167700000Y-115510000D01*
%TO.C,23*%
X86330000Y-110550000D02*
X167700000Y-110550000D01*
X86330000Y-107890000D02*
X167700000Y-107890000D01*
%TO.C,28*%
X86330000Y-123250000D02*
X167700000Y-123250000D01*
X86330000Y-120590000D02*
X167700000Y-120590000D01*
%TO.C,15*%
X86330000Y-90230000D02*
X167700000Y-90230000D01*
X86330000Y-87570000D02*
X167700000Y-87570000D01*
%TO.C,20*%
X86330000Y-102930000D02*
X167700000Y-102930000D01*
X86330000Y-100270000D02*
X167700000Y-100270000D01*
%TO.C,18*%
X86330000Y-97850000D02*
X167700000Y-97850000D01*
X86330000Y-95190000D02*
X167700000Y-95190000D01*
%TO.C,17*%
X86330000Y-95310000D02*
X167700000Y-95310000D01*
X86330000Y-92650000D02*
X167700000Y-92650000D01*
%TO.C,19*%
X86330000Y-100390000D02*
X167700000Y-100390000D01*
X86330000Y-97730000D02*
X167700000Y-97730000D01*
%TO.C,16*%
X86330000Y-92770000D02*
X167700000Y-92770000D01*
X86330000Y-90110000D02*
X167700000Y-90110000D01*
%TO.C,21*%
X86330000Y-105470000D02*
X167700000Y-105470000D01*
X86330000Y-102810000D02*
X167700000Y-102810000D01*
%TO.C,8*%
X86330000Y-72450000D02*
X167700000Y-72450000D01*
X86330000Y-69790000D02*
X167700000Y-69790000D01*
%TO.C,13*%
X86330000Y-85150000D02*
X167700000Y-85150000D01*
X86330000Y-82490000D02*
X167700000Y-82490000D01*
%TO.C,11*%
X86330000Y-80070000D02*
X167700000Y-80070000D01*
X86330000Y-77410000D02*
X167700000Y-77410000D01*
%TO.C,10*%
X86330000Y-77530000D02*
X167700000Y-77530000D01*
X86330000Y-74870000D02*
X167700000Y-74870000D01*
%TO.C,12*%
X86330000Y-82610000D02*
X167700000Y-82610000D01*
X86330000Y-79950000D02*
X167700000Y-79950000D01*
%TO.C,9*%
X86330000Y-74990000D02*
X167700000Y-74990000D01*
X86330000Y-72330000D02*
X167700000Y-72330000D01*
%TO.C,14*%
X86330000Y-87690000D02*
X167700000Y-87690000D01*
X86330000Y-85030000D02*
X167700000Y-85030000D01*
%TO.C,7*%
X86330000Y-69910000D02*
X167700000Y-69910000D01*
X86330000Y-67250000D02*
X167700000Y-67250000D01*
%TO.C,6*%
X86330000Y-67370000D02*
X167700000Y-67370000D01*
X86330000Y-64710000D02*
X167700000Y-64710000D01*
%TO.C,5*%
X86330000Y-64830000D02*
X167700000Y-64830000D01*
X86330000Y-62170000D02*
X167700000Y-62170000D01*
%TO.C,4*%
X86330000Y-62290000D02*
X167700000Y-62290000D01*
X86330000Y-59630000D02*
X167700000Y-59630000D01*
%TO.C,3*%
X86330000Y-59750000D02*
X167700000Y-59750000D01*
X86330000Y-57090000D02*
X167700000Y-57090000D01*
%TO.C,2*%
X86330000Y-57210000D02*
X167700000Y-57210000D01*
X86330000Y-54550000D02*
X167700000Y-54550000D01*
%TO.C,1*%
X86330000Y-54670000D02*
X167700000Y-54670000D01*
X86330000Y-52010000D02*
X167700000Y-52010000D01*
%TO.C,+*%
X82490000Y-60930000D02*
X82490000Y-142300000D01*
X85150000Y-60930000D02*
X85150000Y-142300000D01*
%TO.C,GND*%
X171390000Y-60930000D02*
X171390000Y-142300000D01*
X174050000Y-60930000D02*
X174050000Y-142300000D01*
%TO.C,-*%
X173930000Y-60930000D02*
X173930000Y-142300000D01*
X176590000Y-60930000D02*
X176590000Y-142300000D01*
X77410000Y-60930000D02*
X77410000Y-142300000D01*
X80070000Y-60930000D02*
X80070000Y-142300000D01*
%TO.C,GND*%
X79950000Y-60930000D02*
X79950000Y-142300000D01*
X82610000Y-60930000D02*
X82610000Y-142300000D01*
%TO.C,+*%
X168850000Y-60930000D02*
X168850000Y-142300000D01*
X171510000Y-60930000D02*
X171510000Y-142300000D01*
%TO.C,38*%
D11*
X86399619Y-146510476D02*
X86399619Y-147129523D01*
X86018666Y-146796190D01*
X86018666Y-146939047D01*
X85971047Y-147034285D01*
X85923428Y-147081904D01*
X85828190Y-147129523D01*
X85590095Y-147129523D01*
X85494857Y-147081904D01*
X85447238Y-147034285D01*
X85399619Y-146939047D01*
X85399619Y-146653333D01*
X85447238Y-146558095D01*
X85494857Y-146510476D01*
X85971047Y-147700952D02*
X86018666Y-147605714D01*
X86066285Y-147558095D01*
X86161523Y-147510476D01*
X86209142Y-147510476D01*
X86304380Y-147558095D01*
X86352000Y-147605714D01*
X86399619Y-147700952D01*
X86399619Y-147891428D01*
X86352000Y-147986666D01*
X86304380Y-148034285D01*
X86209142Y-148081904D01*
X86161523Y-148081904D01*
X86066285Y-148034285D01*
X86018666Y-147986666D01*
X85971047Y-147891428D01*
X85971047Y-147700952D01*
X85923428Y-147605714D01*
X85875809Y-147558095D01*
X85780571Y-147510476D01*
X85590095Y-147510476D01*
X85494857Y-147558095D01*
X85447238Y-147605714D01*
X85399619Y-147700952D01*
X85399619Y-147891428D01*
X85447238Y-147986666D01*
X85494857Y-148034285D01*
X85590095Y-148081904D01*
X85780571Y-148081904D01*
X85875809Y-148034285D01*
X85923428Y-147986666D01*
X85971047Y-147891428D01*
X167582380Y-148129523D02*
X167582380Y-147510476D01*
X167963333Y-147843809D01*
X167963333Y-147700952D01*
X168010952Y-147605714D01*
X168058571Y-147558095D01*
X168153809Y-147510476D01*
X168391904Y-147510476D01*
X168487142Y-147558095D01*
X168534761Y-147605714D01*
X168582380Y-147700952D01*
X168582380Y-147986666D01*
X168534761Y-148081904D01*
X168487142Y-148129523D01*
X168010952Y-146939047D02*
X167963333Y-147034285D01*
X167915714Y-147081904D01*
X167820476Y-147129523D01*
X167772857Y-147129523D01*
X167677619Y-147081904D01*
X167630000Y-147034285D01*
X167582380Y-146939047D01*
X167582380Y-146748571D01*
X167630000Y-146653333D01*
X167677619Y-146605714D01*
X167772857Y-146558095D01*
X167820476Y-146558095D01*
X167915714Y-146605714D01*
X167963333Y-146653333D01*
X168010952Y-146748571D01*
X168010952Y-146939047D01*
X168058571Y-147034285D01*
X168106190Y-147081904D01*
X168201428Y-147129523D01*
X168391904Y-147129523D01*
X168487142Y-147081904D01*
X168534761Y-147034285D01*
X168582380Y-146939047D01*
X168582380Y-146748571D01*
X168534761Y-146653333D01*
X168487142Y-146605714D01*
X168391904Y-146558095D01*
X168201428Y-146558095D01*
X168106190Y-146605714D01*
X168058571Y-146653333D01*
X168010952Y-146748571D01*
%TO.C,36*%
X86399619Y-141430476D02*
X86399619Y-142049523D01*
X86018666Y-141716190D01*
X86018666Y-141859047D01*
X85971047Y-141954285D01*
X85923428Y-142001904D01*
X85828190Y-142049523D01*
X85590095Y-142049523D01*
X85494857Y-142001904D01*
X85447238Y-141954285D01*
X85399619Y-141859047D01*
X85399619Y-141573333D01*
X85447238Y-141478095D01*
X85494857Y-141430476D01*
X86399619Y-142906666D02*
X86399619Y-142716190D01*
X86352000Y-142620952D01*
X86304380Y-142573333D01*
X86161523Y-142478095D01*
X85971047Y-142430476D01*
X85590095Y-142430476D01*
X85494857Y-142478095D01*
X85447238Y-142525714D01*
X85399619Y-142620952D01*
X85399619Y-142811428D01*
X85447238Y-142906666D01*
X85494857Y-142954285D01*
X85590095Y-143001904D01*
X85828190Y-143001904D01*
X85923428Y-142954285D01*
X85971047Y-142906666D01*
X86018666Y-142811428D01*
X86018666Y-142620952D01*
X85971047Y-142525714D01*
X85923428Y-142478095D01*
X85828190Y-142430476D01*
X167582380Y-143049523D02*
X167582380Y-142430476D01*
X167963333Y-142763809D01*
X167963333Y-142620952D01*
X168010952Y-142525714D01*
X168058571Y-142478095D01*
X168153809Y-142430476D01*
X168391904Y-142430476D01*
X168487142Y-142478095D01*
X168534761Y-142525714D01*
X168582380Y-142620952D01*
X168582380Y-142906666D01*
X168534761Y-143001904D01*
X168487142Y-143049523D01*
X167582380Y-141573333D02*
X167582380Y-141763809D01*
X167630000Y-141859047D01*
X167677619Y-141906666D01*
X167820476Y-142001904D01*
X168010952Y-142049523D01*
X168391904Y-142049523D01*
X168487142Y-142001904D01*
X168534761Y-141954285D01*
X168582380Y-141859047D01*
X168582380Y-141668571D01*
X168534761Y-141573333D01*
X168487142Y-141525714D01*
X168391904Y-141478095D01*
X168153809Y-141478095D01*
X168058571Y-141525714D01*
X168010952Y-141573333D01*
X167963333Y-141668571D01*
X167963333Y-141859047D01*
X168010952Y-141954285D01*
X168058571Y-142001904D01*
X168153809Y-142049523D01*
%TO.C,37*%
X86399619Y-143970476D02*
X86399619Y-144589523D01*
X86018666Y-144256190D01*
X86018666Y-144399047D01*
X85971047Y-144494285D01*
X85923428Y-144541904D01*
X85828190Y-144589523D01*
X85590095Y-144589523D01*
X85494857Y-144541904D01*
X85447238Y-144494285D01*
X85399619Y-144399047D01*
X85399619Y-144113333D01*
X85447238Y-144018095D01*
X85494857Y-143970476D01*
X86399619Y-144922857D02*
X86399619Y-145589523D01*
X85399619Y-145160952D01*
X167582380Y-145589523D02*
X167582380Y-144970476D01*
X167963333Y-145303809D01*
X167963333Y-145160952D01*
X168010952Y-145065714D01*
X168058571Y-145018095D01*
X168153809Y-144970476D01*
X168391904Y-144970476D01*
X168487142Y-145018095D01*
X168534761Y-145065714D01*
X168582380Y-145160952D01*
X168582380Y-145446666D01*
X168534761Y-145541904D01*
X168487142Y-145589523D01*
X167582380Y-144637142D02*
X167582380Y-143970476D01*
X168582380Y-144399047D01*
%TO.C,29*%
X86304380Y-123698095D02*
X86352000Y-123745714D01*
X86399619Y-123840952D01*
X86399619Y-124079047D01*
X86352000Y-124174285D01*
X86304380Y-124221904D01*
X86209142Y-124269523D01*
X86113904Y-124269523D01*
X85971047Y-124221904D01*
X85399619Y-123650476D01*
X85399619Y-124269523D01*
X85399619Y-124745714D02*
X85399619Y-124936190D01*
X85447238Y-125031428D01*
X85494857Y-125079047D01*
X85637714Y-125174285D01*
X85828190Y-125221904D01*
X86209142Y-125221904D01*
X86304380Y-125174285D01*
X86352000Y-125126666D01*
X86399619Y-125031428D01*
X86399619Y-124840952D01*
X86352000Y-124745714D01*
X86304380Y-124698095D01*
X86209142Y-124650476D01*
X85971047Y-124650476D01*
X85875809Y-124698095D01*
X85828190Y-124745714D01*
X85780571Y-124840952D01*
X85780571Y-125031428D01*
X85828190Y-125126666D01*
X85875809Y-125174285D01*
X85971047Y-125221904D01*
X167677619Y-125221904D02*
X167630000Y-125174285D01*
X167582380Y-125079047D01*
X167582380Y-124840952D01*
X167630000Y-124745714D01*
X167677619Y-124698095D01*
X167772857Y-124650476D01*
X167868095Y-124650476D01*
X168010952Y-124698095D01*
X168582380Y-125269523D01*
X168582380Y-124650476D01*
X168582380Y-124174285D02*
X168582380Y-123983809D01*
X168534761Y-123888571D01*
X168487142Y-123840952D01*
X168344285Y-123745714D01*
X168153809Y-123698095D01*
X167772857Y-123698095D01*
X167677619Y-123745714D01*
X167630000Y-123793333D01*
X167582380Y-123888571D01*
X167582380Y-124079047D01*
X167630000Y-124174285D01*
X167677619Y-124221904D01*
X167772857Y-124269523D01*
X168010952Y-124269523D01*
X168106190Y-124221904D01*
X168153809Y-124174285D01*
X168201428Y-124079047D01*
X168201428Y-123888571D01*
X168153809Y-123793333D01*
X168106190Y-123745714D01*
X168010952Y-123698095D01*
%TO.C,34*%
X86399619Y-136350476D02*
X86399619Y-136969523D01*
X86018666Y-136636190D01*
X86018666Y-136779047D01*
X85971047Y-136874285D01*
X85923428Y-136921904D01*
X85828190Y-136969523D01*
X85590095Y-136969523D01*
X85494857Y-136921904D01*
X85447238Y-136874285D01*
X85399619Y-136779047D01*
X85399619Y-136493333D01*
X85447238Y-136398095D01*
X85494857Y-136350476D01*
X86066285Y-137826666D02*
X85399619Y-137826666D01*
X86447238Y-137588571D02*
X85732952Y-137350476D01*
X85732952Y-137969523D01*
X167582380Y-137969523D02*
X167582380Y-137350476D01*
X167963333Y-137683809D01*
X167963333Y-137540952D01*
X168010952Y-137445714D01*
X168058571Y-137398095D01*
X168153809Y-137350476D01*
X168391904Y-137350476D01*
X168487142Y-137398095D01*
X168534761Y-137445714D01*
X168582380Y-137540952D01*
X168582380Y-137826666D01*
X168534761Y-137921904D01*
X168487142Y-137969523D01*
X167915714Y-136493333D02*
X168582380Y-136493333D01*
X167534761Y-136731428D02*
X168249047Y-136969523D01*
X168249047Y-136350476D01*
%TO.C,32*%
X86399619Y-131270476D02*
X86399619Y-131889523D01*
X86018666Y-131556190D01*
X86018666Y-131699047D01*
X85971047Y-131794285D01*
X85923428Y-131841904D01*
X85828190Y-131889523D01*
X85590095Y-131889523D01*
X85494857Y-131841904D01*
X85447238Y-131794285D01*
X85399619Y-131699047D01*
X85399619Y-131413333D01*
X85447238Y-131318095D01*
X85494857Y-131270476D01*
X86304380Y-132270476D02*
X86352000Y-132318095D01*
X86399619Y-132413333D01*
X86399619Y-132651428D01*
X86352000Y-132746666D01*
X86304380Y-132794285D01*
X86209142Y-132841904D01*
X86113904Y-132841904D01*
X85971047Y-132794285D01*
X85399619Y-132222857D01*
X85399619Y-132841904D01*
X167582380Y-132889523D02*
X167582380Y-132270476D01*
X167963333Y-132603809D01*
X167963333Y-132460952D01*
X168010952Y-132365714D01*
X168058571Y-132318095D01*
X168153809Y-132270476D01*
X168391904Y-132270476D01*
X168487142Y-132318095D01*
X168534761Y-132365714D01*
X168582380Y-132460952D01*
X168582380Y-132746666D01*
X168534761Y-132841904D01*
X168487142Y-132889523D01*
X167677619Y-131889523D02*
X167630000Y-131841904D01*
X167582380Y-131746666D01*
X167582380Y-131508571D01*
X167630000Y-131413333D01*
X167677619Y-131365714D01*
X167772857Y-131318095D01*
X167868095Y-131318095D01*
X168010952Y-131365714D01*
X168582380Y-131937142D01*
X168582380Y-131318095D01*
%TO.C,31*%
X86399619Y-128730476D02*
X86399619Y-129349523D01*
X86018666Y-129016190D01*
X86018666Y-129159047D01*
X85971047Y-129254285D01*
X85923428Y-129301904D01*
X85828190Y-129349523D01*
X85590095Y-129349523D01*
X85494857Y-129301904D01*
X85447238Y-129254285D01*
X85399619Y-129159047D01*
X85399619Y-128873333D01*
X85447238Y-128778095D01*
X85494857Y-128730476D01*
X85399619Y-130301904D02*
X85399619Y-129730476D01*
X85399619Y-130016190D02*
X86399619Y-130016190D01*
X86256761Y-129920952D01*
X86161523Y-129825714D01*
X86113904Y-129730476D01*
X167582380Y-130349523D02*
X167582380Y-129730476D01*
X167963333Y-130063809D01*
X167963333Y-129920952D01*
X168010952Y-129825714D01*
X168058571Y-129778095D01*
X168153809Y-129730476D01*
X168391904Y-129730476D01*
X168487142Y-129778095D01*
X168534761Y-129825714D01*
X168582380Y-129920952D01*
X168582380Y-130206666D01*
X168534761Y-130301904D01*
X168487142Y-130349523D01*
X168582380Y-128778095D02*
X168582380Y-129349523D01*
X168582380Y-129063809D02*
X167582380Y-129063809D01*
X167725238Y-129159047D01*
X167820476Y-129254285D01*
X167868095Y-129349523D01*
%TO.C,33*%
X86399619Y-133810476D02*
X86399619Y-134429523D01*
X86018666Y-134096190D01*
X86018666Y-134239047D01*
X85971047Y-134334285D01*
X85923428Y-134381904D01*
X85828190Y-134429523D01*
X85590095Y-134429523D01*
X85494857Y-134381904D01*
X85447238Y-134334285D01*
X85399619Y-134239047D01*
X85399619Y-133953333D01*
X85447238Y-133858095D01*
X85494857Y-133810476D01*
X86399619Y-134762857D02*
X86399619Y-135381904D01*
X86018666Y-135048571D01*
X86018666Y-135191428D01*
X85971047Y-135286666D01*
X85923428Y-135334285D01*
X85828190Y-135381904D01*
X85590095Y-135381904D01*
X85494857Y-135334285D01*
X85447238Y-135286666D01*
X85399619Y-135191428D01*
X85399619Y-134905714D01*
X85447238Y-134810476D01*
X85494857Y-134762857D01*
X167582380Y-135429523D02*
X167582380Y-134810476D01*
X167963333Y-135143809D01*
X167963333Y-135000952D01*
X168010952Y-134905714D01*
X168058571Y-134858095D01*
X168153809Y-134810476D01*
X168391904Y-134810476D01*
X168487142Y-134858095D01*
X168534761Y-134905714D01*
X168582380Y-135000952D01*
X168582380Y-135286666D01*
X168534761Y-135381904D01*
X168487142Y-135429523D01*
X167582380Y-134477142D02*
X167582380Y-133858095D01*
X167963333Y-134191428D01*
X167963333Y-134048571D01*
X168010952Y-133953333D01*
X168058571Y-133905714D01*
X168153809Y-133858095D01*
X168391904Y-133858095D01*
X168487142Y-133905714D01*
X168534761Y-133953333D01*
X168582380Y-134048571D01*
X168582380Y-134334285D01*
X168534761Y-134429523D01*
X168487142Y-134477142D01*
%TO.C,30*%
X86399619Y-126190476D02*
X86399619Y-126809523D01*
X86018666Y-126476190D01*
X86018666Y-126619047D01*
X85971047Y-126714285D01*
X85923428Y-126761904D01*
X85828190Y-126809523D01*
X85590095Y-126809523D01*
X85494857Y-126761904D01*
X85447238Y-126714285D01*
X85399619Y-126619047D01*
X85399619Y-126333333D01*
X85447238Y-126238095D01*
X85494857Y-126190476D01*
X86399619Y-127428571D02*
X86399619Y-127523809D01*
X86352000Y-127619047D01*
X86304380Y-127666666D01*
X86209142Y-127714285D01*
X86018666Y-127761904D01*
X85780571Y-127761904D01*
X85590095Y-127714285D01*
X85494857Y-127666666D01*
X85447238Y-127619047D01*
X85399619Y-127523809D01*
X85399619Y-127428571D01*
X85447238Y-127333333D01*
X85494857Y-127285714D01*
X85590095Y-127238095D01*
X85780571Y-127190476D01*
X86018666Y-127190476D01*
X86209142Y-127238095D01*
X86304380Y-127285714D01*
X86352000Y-127333333D01*
X86399619Y-127428571D01*
X167582380Y-127809523D02*
X167582380Y-127190476D01*
X167963333Y-127523809D01*
X167963333Y-127380952D01*
X168010952Y-127285714D01*
X168058571Y-127238095D01*
X168153809Y-127190476D01*
X168391904Y-127190476D01*
X168487142Y-127238095D01*
X168534761Y-127285714D01*
X168582380Y-127380952D01*
X168582380Y-127666666D01*
X168534761Y-127761904D01*
X168487142Y-127809523D01*
X167582380Y-126571428D02*
X167582380Y-126476190D01*
X167630000Y-126380952D01*
X167677619Y-126333333D01*
X167772857Y-126285714D01*
X167963333Y-126238095D01*
X168201428Y-126238095D01*
X168391904Y-126285714D01*
X168487142Y-126333333D01*
X168534761Y-126380952D01*
X168582380Y-126476190D01*
X168582380Y-126571428D01*
X168534761Y-126666666D01*
X168487142Y-126714285D01*
X168391904Y-126761904D01*
X168201428Y-126809523D01*
X167963333Y-126809523D01*
X167772857Y-126761904D01*
X167677619Y-126714285D01*
X167630000Y-126666666D01*
X167582380Y-126571428D01*
%TO.C,35*%
X86399619Y-138890476D02*
X86399619Y-139509523D01*
X86018666Y-139176190D01*
X86018666Y-139319047D01*
X85971047Y-139414285D01*
X85923428Y-139461904D01*
X85828190Y-139509523D01*
X85590095Y-139509523D01*
X85494857Y-139461904D01*
X85447238Y-139414285D01*
X85399619Y-139319047D01*
X85399619Y-139033333D01*
X85447238Y-138938095D01*
X85494857Y-138890476D01*
X86399619Y-140414285D02*
X86399619Y-139938095D01*
X85923428Y-139890476D01*
X85971047Y-139938095D01*
X86018666Y-140033333D01*
X86018666Y-140271428D01*
X85971047Y-140366666D01*
X85923428Y-140414285D01*
X85828190Y-140461904D01*
X85590095Y-140461904D01*
X85494857Y-140414285D01*
X85447238Y-140366666D01*
X85399619Y-140271428D01*
X85399619Y-140033333D01*
X85447238Y-139938095D01*
X85494857Y-139890476D01*
X167582380Y-140509523D02*
X167582380Y-139890476D01*
X167963333Y-140223809D01*
X167963333Y-140080952D01*
X168010952Y-139985714D01*
X168058571Y-139938095D01*
X168153809Y-139890476D01*
X168391904Y-139890476D01*
X168487142Y-139938095D01*
X168534761Y-139985714D01*
X168582380Y-140080952D01*
X168582380Y-140366666D01*
X168534761Y-140461904D01*
X168487142Y-140509523D01*
X167582380Y-138985714D02*
X167582380Y-139461904D01*
X168058571Y-139509523D01*
X168010952Y-139461904D01*
X167963333Y-139366666D01*
X167963333Y-139128571D01*
X168010952Y-139033333D01*
X168058571Y-138985714D01*
X168153809Y-138938095D01*
X168391904Y-138938095D01*
X168487142Y-138985714D01*
X168534761Y-139033333D01*
X168582380Y-139128571D01*
X168582380Y-139366666D01*
X168534761Y-139461904D01*
X168487142Y-139509523D01*
%TO.C,22*%
X86304380Y-105918095D02*
X86352000Y-105965714D01*
X86399619Y-106060952D01*
X86399619Y-106299047D01*
X86352000Y-106394285D01*
X86304380Y-106441904D01*
X86209142Y-106489523D01*
X86113904Y-106489523D01*
X85971047Y-106441904D01*
X85399619Y-105870476D01*
X85399619Y-106489523D01*
X86304380Y-106870476D02*
X86352000Y-106918095D01*
X86399619Y-107013333D01*
X86399619Y-107251428D01*
X86352000Y-107346666D01*
X86304380Y-107394285D01*
X86209142Y-107441904D01*
X86113904Y-107441904D01*
X85971047Y-107394285D01*
X85399619Y-106822857D01*
X85399619Y-107441904D01*
X167677619Y-107441904D02*
X167630000Y-107394285D01*
X167582380Y-107299047D01*
X167582380Y-107060952D01*
X167630000Y-106965714D01*
X167677619Y-106918095D01*
X167772857Y-106870476D01*
X167868095Y-106870476D01*
X168010952Y-106918095D01*
X168582380Y-107489523D01*
X168582380Y-106870476D01*
X167677619Y-106489523D02*
X167630000Y-106441904D01*
X167582380Y-106346666D01*
X167582380Y-106108571D01*
X167630000Y-106013333D01*
X167677619Y-105965714D01*
X167772857Y-105918095D01*
X167868095Y-105918095D01*
X168010952Y-105965714D01*
X168582380Y-106537142D01*
X168582380Y-105918095D01*
%TO.C,27*%
X86304380Y-118618095D02*
X86352000Y-118665714D01*
X86399619Y-118760952D01*
X86399619Y-118999047D01*
X86352000Y-119094285D01*
X86304380Y-119141904D01*
X86209142Y-119189523D01*
X86113904Y-119189523D01*
X85971047Y-119141904D01*
X85399619Y-118570476D01*
X85399619Y-119189523D01*
X86399619Y-119522857D02*
X86399619Y-120189523D01*
X85399619Y-119760952D01*
X167677619Y-120141904D02*
X167630000Y-120094285D01*
X167582380Y-119999047D01*
X167582380Y-119760952D01*
X167630000Y-119665714D01*
X167677619Y-119618095D01*
X167772857Y-119570476D01*
X167868095Y-119570476D01*
X168010952Y-119618095D01*
X168582380Y-120189523D01*
X168582380Y-119570476D01*
X167582380Y-119237142D02*
X167582380Y-118570476D01*
X168582380Y-118999047D01*
%TO.C,25*%
X86304380Y-113538095D02*
X86352000Y-113585714D01*
X86399619Y-113680952D01*
X86399619Y-113919047D01*
X86352000Y-114014285D01*
X86304380Y-114061904D01*
X86209142Y-114109523D01*
X86113904Y-114109523D01*
X85971047Y-114061904D01*
X85399619Y-113490476D01*
X85399619Y-114109523D01*
X86399619Y-115014285D02*
X86399619Y-114538095D01*
X85923428Y-114490476D01*
X85971047Y-114538095D01*
X86018666Y-114633333D01*
X86018666Y-114871428D01*
X85971047Y-114966666D01*
X85923428Y-115014285D01*
X85828190Y-115061904D01*
X85590095Y-115061904D01*
X85494857Y-115014285D01*
X85447238Y-114966666D01*
X85399619Y-114871428D01*
X85399619Y-114633333D01*
X85447238Y-114538095D01*
X85494857Y-114490476D01*
X167677619Y-115061904D02*
X167630000Y-115014285D01*
X167582380Y-114919047D01*
X167582380Y-114680952D01*
X167630000Y-114585714D01*
X167677619Y-114538095D01*
X167772857Y-114490476D01*
X167868095Y-114490476D01*
X168010952Y-114538095D01*
X168582380Y-115109523D01*
X168582380Y-114490476D01*
X167582380Y-113585714D02*
X167582380Y-114061904D01*
X168058571Y-114109523D01*
X168010952Y-114061904D01*
X167963333Y-113966666D01*
X167963333Y-113728571D01*
X168010952Y-113633333D01*
X168058571Y-113585714D01*
X168153809Y-113538095D01*
X168391904Y-113538095D01*
X168487142Y-113585714D01*
X168534761Y-113633333D01*
X168582380Y-113728571D01*
X168582380Y-113966666D01*
X168534761Y-114061904D01*
X168487142Y-114109523D01*
%TO.C,24*%
X86304380Y-110998095D02*
X86352000Y-111045714D01*
X86399619Y-111140952D01*
X86399619Y-111379047D01*
X86352000Y-111474285D01*
X86304380Y-111521904D01*
X86209142Y-111569523D01*
X86113904Y-111569523D01*
X85971047Y-111521904D01*
X85399619Y-110950476D01*
X85399619Y-111569523D01*
X86066285Y-112426666D02*
X85399619Y-112426666D01*
X86447238Y-112188571D02*
X85732952Y-111950476D01*
X85732952Y-112569523D01*
X167677619Y-112521904D02*
X167630000Y-112474285D01*
X167582380Y-112379047D01*
X167582380Y-112140952D01*
X167630000Y-112045714D01*
X167677619Y-111998095D01*
X167772857Y-111950476D01*
X167868095Y-111950476D01*
X168010952Y-111998095D01*
X168582380Y-112569523D01*
X168582380Y-111950476D01*
X167915714Y-111093333D02*
X168582380Y-111093333D01*
X167534761Y-111331428D02*
X168249047Y-111569523D01*
X168249047Y-110950476D01*
%TO.C,26*%
X86304380Y-116078095D02*
X86352000Y-116125714D01*
X86399619Y-116220952D01*
X86399619Y-116459047D01*
X86352000Y-116554285D01*
X86304380Y-116601904D01*
X86209142Y-116649523D01*
X86113904Y-116649523D01*
X85971047Y-116601904D01*
X85399619Y-116030476D01*
X85399619Y-116649523D01*
X86399619Y-117506666D02*
X86399619Y-117316190D01*
X86352000Y-117220952D01*
X86304380Y-117173333D01*
X86161523Y-117078095D01*
X85971047Y-117030476D01*
X85590095Y-117030476D01*
X85494857Y-117078095D01*
X85447238Y-117125714D01*
X85399619Y-117220952D01*
X85399619Y-117411428D01*
X85447238Y-117506666D01*
X85494857Y-117554285D01*
X85590095Y-117601904D01*
X85828190Y-117601904D01*
X85923428Y-117554285D01*
X85971047Y-117506666D01*
X86018666Y-117411428D01*
X86018666Y-117220952D01*
X85971047Y-117125714D01*
X85923428Y-117078095D01*
X85828190Y-117030476D01*
X167677619Y-117601904D02*
X167630000Y-117554285D01*
X167582380Y-117459047D01*
X167582380Y-117220952D01*
X167630000Y-117125714D01*
X167677619Y-117078095D01*
X167772857Y-117030476D01*
X167868095Y-117030476D01*
X168010952Y-117078095D01*
X168582380Y-117649523D01*
X168582380Y-117030476D01*
X167582380Y-116173333D02*
X167582380Y-116363809D01*
X167630000Y-116459047D01*
X167677619Y-116506666D01*
X167820476Y-116601904D01*
X168010952Y-116649523D01*
X168391904Y-116649523D01*
X168487142Y-116601904D01*
X168534761Y-116554285D01*
X168582380Y-116459047D01*
X168582380Y-116268571D01*
X168534761Y-116173333D01*
X168487142Y-116125714D01*
X168391904Y-116078095D01*
X168153809Y-116078095D01*
X168058571Y-116125714D01*
X168010952Y-116173333D01*
X167963333Y-116268571D01*
X167963333Y-116459047D01*
X168010952Y-116554285D01*
X168058571Y-116601904D01*
X168153809Y-116649523D01*
%TO.C,23*%
X86304380Y-108458095D02*
X86352000Y-108505714D01*
X86399619Y-108600952D01*
X86399619Y-108839047D01*
X86352000Y-108934285D01*
X86304380Y-108981904D01*
X86209142Y-109029523D01*
X86113904Y-109029523D01*
X85971047Y-108981904D01*
X85399619Y-108410476D01*
X85399619Y-109029523D01*
X86399619Y-109362857D02*
X86399619Y-109981904D01*
X86018666Y-109648571D01*
X86018666Y-109791428D01*
X85971047Y-109886666D01*
X85923428Y-109934285D01*
X85828190Y-109981904D01*
X85590095Y-109981904D01*
X85494857Y-109934285D01*
X85447238Y-109886666D01*
X85399619Y-109791428D01*
X85399619Y-109505714D01*
X85447238Y-109410476D01*
X85494857Y-109362857D01*
X167677619Y-109981904D02*
X167630000Y-109934285D01*
X167582380Y-109839047D01*
X167582380Y-109600952D01*
X167630000Y-109505714D01*
X167677619Y-109458095D01*
X167772857Y-109410476D01*
X167868095Y-109410476D01*
X168010952Y-109458095D01*
X168582380Y-110029523D01*
X168582380Y-109410476D01*
X167582380Y-109077142D02*
X167582380Y-108458095D01*
X167963333Y-108791428D01*
X167963333Y-108648571D01*
X168010952Y-108553333D01*
X168058571Y-108505714D01*
X168153809Y-108458095D01*
X168391904Y-108458095D01*
X168487142Y-108505714D01*
X168534761Y-108553333D01*
X168582380Y-108648571D01*
X168582380Y-108934285D01*
X168534761Y-109029523D01*
X168487142Y-109077142D01*
%TO.C,28*%
X86304380Y-121158095D02*
X86352000Y-121205714D01*
X86399619Y-121300952D01*
X86399619Y-121539047D01*
X86352000Y-121634285D01*
X86304380Y-121681904D01*
X86209142Y-121729523D01*
X86113904Y-121729523D01*
X85971047Y-121681904D01*
X85399619Y-121110476D01*
X85399619Y-121729523D01*
X85971047Y-122300952D02*
X86018666Y-122205714D01*
X86066285Y-122158095D01*
X86161523Y-122110476D01*
X86209142Y-122110476D01*
X86304380Y-122158095D01*
X86352000Y-122205714D01*
X86399619Y-122300952D01*
X86399619Y-122491428D01*
X86352000Y-122586666D01*
X86304380Y-122634285D01*
X86209142Y-122681904D01*
X86161523Y-122681904D01*
X86066285Y-122634285D01*
X86018666Y-122586666D01*
X85971047Y-122491428D01*
X85971047Y-122300952D01*
X85923428Y-122205714D01*
X85875809Y-122158095D01*
X85780571Y-122110476D01*
X85590095Y-122110476D01*
X85494857Y-122158095D01*
X85447238Y-122205714D01*
X85399619Y-122300952D01*
X85399619Y-122491428D01*
X85447238Y-122586666D01*
X85494857Y-122634285D01*
X85590095Y-122681904D01*
X85780571Y-122681904D01*
X85875809Y-122634285D01*
X85923428Y-122586666D01*
X85971047Y-122491428D01*
X167677619Y-122681904D02*
X167630000Y-122634285D01*
X167582380Y-122539047D01*
X167582380Y-122300952D01*
X167630000Y-122205714D01*
X167677619Y-122158095D01*
X167772857Y-122110476D01*
X167868095Y-122110476D01*
X168010952Y-122158095D01*
X168582380Y-122729523D01*
X168582380Y-122110476D01*
X168010952Y-121539047D02*
X167963333Y-121634285D01*
X167915714Y-121681904D01*
X167820476Y-121729523D01*
X167772857Y-121729523D01*
X167677619Y-121681904D01*
X167630000Y-121634285D01*
X167582380Y-121539047D01*
X167582380Y-121348571D01*
X167630000Y-121253333D01*
X167677619Y-121205714D01*
X167772857Y-121158095D01*
X167820476Y-121158095D01*
X167915714Y-121205714D01*
X167963333Y-121253333D01*
X168010952Y-121348571D01*
X168010952Y-121539047D01*
X168058571Y-121634285D01*
X168106190Y-121681904D01*
X168201428Y-121729523D01*
X168391904Y-121729523D01*
X168487142Y-121681904D01*
X168534761Y-121634285D01*
X168582380Y-121539047D01*
X168582380Y-121348571D01*
X168534761Y-121253333D01*
X168487142Y-121205714D01*
X168391904Y-121158095D01*
X168201428Y-121158095D01*
X168106190Y-121205714D01*
X168058571Y-121253333D01*
X168010952Y-121348571D01*
%TO.C,15*%
X85399619Y-88709523D02*
X85399619Y-88138095D01*
X85399619Y-88423809D02*
X86399619Y-88423809D01*
X86256761Y-88328571D01*
X86161523Y-88233333D01*
X86113904Y-88138095D01*
X86399619Y-89614285D02*
X86399619Y-89138095D01*
X85923428Y-89090476D01*
X85971047Y-89138095D01*
X86018666Y-89233333D01*
X86018666Y-89471428D01*
X85971047Y-89566666D01*
X85923428Y-89614285D01*
X85828190Y-89661904D01*
X85590095Y-89661904D01*
X85494857Y-89614285D01*
X85447238Y-89566666D01*
X85399619Y-89471428D01*
X85399619Y-89233333D01*
X85447238Y-89138095D01*
X85494857Y-89090476D01*
X168582380Y-89090476D02*
X168582380Y-89661904D01*
X168582380Y-89376190D02*
X167582380Y-89376190D01*
X167725238Y-89471428D01*
X167820476Y-89566666D01*
X167868095Y-89661904D01*
X167582380Y-88185714D02*
X167582380Y-88661904D01*
X168058571Y-88709523D01*
X168010952Y-88661904D01*
X167963333Y-88566666D01*
X167963333Y-88328571D01*
X168010952Y-88233333D01*
X168058571Y-88185714D01*
X168153809Y-88138095D01*
X168391904Y-88138095D01*
X168487142Y-88185714D01*
X168534761Y-88233333D01*
X168582380Y-88328571D01*
X168582380Y-88566666D01*
X168534761Y-88661904D01*
X168487142Y-88709523D01*
%TO.C,20*%
X86304380Y-100838095D02*
X86352000Y-100885714D01*
X86399619Y-100980952D01*
X86399619Y-101219047D01*
X86352000Y-101314285D01*
X86304380Y-101361904D01*
X86209142Y-101409523D01*
X86113904Y-101409523D01*
X85971047Y-101361904D01*
X85399619Y-100790476D01*
X85399619Y-101409523D01*
X86399619Y-102028571D02*
X86399619Y-102123809D01*
X86352000Y-102219047D01*
X86304380Y-102266666D01*
X86209142Y-102314285D01*
X86018666Y-102361904D01*
X85780571Y-102361904D01*
X85590095Y-102314285D01*
X85494857Y-102266666D01*
X85447238Y-102219047D01*
X85399619Y-102123809D01*
X85399619Y-102028571D01*
X85447238Y-101933333D01*
X85494857Y-101885714D01*
X85590095Y-101838095D01*
X85780571Y-101790476D01*
X86018666Y-101790476D01*
X86209142Y-101838095D01*
X86304380Y-101885714D01*
X86352000Y-101933333D01*
X86399619Y-102028571D01*
X167677619Y-102361904D02*
X167630000Y-102314285D01*
X167582380Y-102219047D01*
X167582380Y-101980952D01*
X167630000Y-101885714D01*
X167677619Y-101838095D01*
X167772857Y-101790476D01*
X167868095Y-101790476D01*
X168010952Y-101838095D01*
X168582380Y-102409523D01*
X168582380Y-101790476D01*
X167582380Y-101171428D02*
X167582380Y-101076190D01*
X167630000Y-100980952D01*
X167677619Y-100933333D01*
X167772857Y-100885714D01*
X167963333Y-100838095D01*
X168201428Y-100838095D01*
X168391904Y-100885714D01*
X168487142Y-100933333D01*
X168534761Y-100980952D01*
X168582380Y-101076190D01*
X168582380Y-101171428D01*
X168534761Y-101266666D01*
X168487142Y-101314285D01*
X168391904Y-101361904D01*
X168201428Y-101409523D01*
X167963333Y-101409523D01*
X167772857Y-101361904D01*
X167677619Y-101314285D01*
X167630000Y-101266666D01*
X167582380Y-101171428D01*
%TO.C,18*%
X85399619Y-96329523D02*
X85399619Y-95758095D01*
X85399619Y-96043809D02*
X86399619Y-96043809D01*
X86256761Y-95948571D01*
X86161523Y-95853333D01*
X86113904Y-95758095D01*
X85971047Y-96900952D02*
X86018666Y-96805714D01*
X86066285Y-96758095D01*
X86161523Y-96710476D01*
X86209142Y-96710476D01*
X86304380Y-96758095D01*
X86352000Y-96805714D01*
X86399619Y-96900952D01*
X86399619Y-97091428D01*
X86352000Y-97186666D01*
X86304380Y-97234285D01*
X86209142Y-97281904D01*
X86161523Y-97281904D01*
X86066285Y-97234285D01*
X86018666Y-97186666D01*
X85971047Y-97091428D01*
X85971047Y-96900952D01*
X85923428Y-96805714D01*
X85875809Y-96758095D01*
X85780571Y-96710476D01*
X85590095Y-96710476D01*
X85494857Y-96758095D01*
X85447238Y-96805714D01*
X85399619Y-96900952D01*
X85399619Y-97091428D01*
X85447238Y-97186666D01*
X85494857Y-97234285D01*
X85590095Y-97281904D01*
X85780571Y-97281904D01*
X85875809Y-97234285D01*
X85923428Y-97186666D01*
X85971047Y-97091428D01*
X168582380Y-96710476D02*
X168582380Y-97281904D01*
X168582380Y-96996190D02*
X167582380Y-96996190D01*
X167725238Y-97091428D01*
X167820476Y-97186666D01*
X167868095Y-97281904D01*
X168010952Y-96139047D02*
X167963333Y-96234285D01*
X167915714Y-96281904D01*
X167820476Y-96329523D01*
X167772857Y-96329523D01*
X167677619Y-96281904D01*
X167630000Y-96234285D01*
X167582380Y-96139047D01*
X167582380Y-95948571D01*
X167630000Y-95853333D01*
X167677619Y-95805714D01*
X167772857Y-95758095D01*
X167820476Y-95758095D01*
X167915714Y-95805714D01*
X167963333Y-95853333D01*
X168010952Y-95948571D01*
X168010952Y-96139047D01*
X168058571Y-96234285D01*
X168106190Y-96281904D01*
X168201428Y-96329523D01*
X168391904Y-96329523D01*
X168487142Y-96281904D01*
X168534761Y-96234285D01*
X168582380Y-96139047D01*
X168582380Y-95948571D01*
X168534761Y-95853333D01*
X168487142Y-95805714D01*
X168391904Y-95758095D01*
X168201428Y-95758095D01*
X168106190Y-95805714D01*
X168058571Y-95853333D01*
X168010952Y-95948571D01*
%TO.C,17*%
X85399619Y-93789523D02*
X85399619Y-93218095D01*
X85399619Y-93503809D02*
X86399619Y-93503809D01*
X86256761Y-93408571D01*
X86161523Y-93313333D01*
X86113904Y-93218095D01*
X86399619Y-94122857D02*
X86399619Y-94789523D01*
X85399619Y-94360952D01*
X168582380Y-94170476D02*
X168582380Y-94741904D01*
X168582380Y-94456190D02*
X167582380Y-94456190D01*
X167725238Y-94551428D01*
X167820476Y-94646666D01*
X167868095Y-94741904D01*
X167582380Y-93837142D02*
X167582380Y-93170476D01*
X168582380Y-93599047D01*
%TO.C,19*%
X85399619Y-98869523D02*
X85399619Y-98298095D01*
X85399619Y-98583809D02*
X86399619Y-98583809D01*
X86256761Y-98488571D01*
X86161523Y-98393333D01*
X86113904Y-98298095D01*
X85399619Y-99345714D02*
X85399619Y-99536190D01*
X85447238Y-99631428D01*
X85494857Y-99679047D01*
X85637714Y-99774285D01*
X85828190Y-99821904D01*
X86209142Y-99821904D01*
X86304380Y-99774285D01*
X86352000Y-99726666D01*
X86399619Y-99631428D01*
X86399619Y-99440952D01*
X86352000Y-99345714D01*
X86304380Y-99298095D01*
X86209142Y-99250476D01*
X85971047Y-99250476D01*
X85875809Y-99298095D01*
X85828190Y-99345714D01*
X85780571Y-99440952D01*
X85780571Y-99631428D01*
X85828190Y-99726666D01*
X85875809Y-99774285D01*
X85971047Y-99821904D01*
X168582380Y-99250476D02*
X168582380Y-99821904D01*
X168582380Y-99536190D02*
X167582380Y-99536190D01*
X167725238Y-99631428D01*
X167820476Y-99726666D01*
X167868095Y-99821904D01*
X168582380Y-98774285D02*
X168582380Y-98583809D01*
X168534761Y-98488571D01*
X168487142Y-98440952D01*
X168344285Y-98345714D01*
X168153809Y-98298095D01*
X167772857Y-98298095D01*
X167677619Y-98345714D01*
X167630000Y-98393333D01*
X167582380Y-98488571D01*
X167582380Y-98679047D01*
X167630000Y-98774285D01*
X167677619Y-98821904D01*
X167772857Y-98869523D01*
X168010952Y-98869523D01*
X168106190Y-98821904D01*
X168153809Y-98774285D01*
X168201428Y-98679047D01*
X168201428Y-98488571D01*
X168153809Y-98393333D01*
X168106190Y-98345714D01*
X168010952Y-98298095D01*
%TO.C,16*%
X85399619Y-91249523D02*
X85399619Y-90678095D01*
X85399619Y-90963809D02*
X86399619Y-90963809D01*
X86256761Y-90868571D01*
X86161523Y-90773333D01*
X86113904Y-90678095D01*
X86399619Y-92106666D02*
X86399619Y-91916190D01*
X86352000Y-91820952D01*
X86304380Y-91773333D01*
X86161523Y-91678095D01*
X85971047Y-91630476D01*
X85590095Y-91630476D01*
X85494857Y-91678095D01*
X85447238Y-91725714D01*
X85399619Y-91820952D01*
X85399619Y-92011428D01*
X85447238Y-92106666D01*
X85494857Y-92154285D01*
X85590095Y-92201904D01*
X85828190Y-92201904D01*
X85923428Y-92154285D01*
X85971047Y-92106666D01*
X86018666Y-92011428D01*
X86018666Y-91820952D01*
X85971047Y-91725714D01*
X85923428Y-91678095D01*
X85828190Y-91630476D01*
X168582380Y-91630476D02*
X168582380Y-92201904D01*
X168582380Y-91916190D02*
X167582380Y-91916190D01*
X167725238Y-92011428D01*
X167820476Y-92106666D01*
X167868095Y-92201904D01*
X167582380Y-90773333D02*
X167582380Y-90963809D01*
X167630000Y-91059047D01*
X167677619Y-91106666D01*
X167820476Y-91201904D01*
X168010952Y-91249523D01*
X168391904Y-91249523D01*
X168487142Y-91201904D01*
X168534761Y-91154285D01*
X168582380Y-91059047D01*
X168582380Y-90868571D01*
X168534761Y-90773333D01*
X168487142Y-90725714D01*
X168391904Y-90678095D01*
X168153809Y-90678095D01*
X168058571Y-90725714D01*
X168010952Y-90773333D01*
X167963333Y-90868571D01*
X167963333Y-91059047D01*
X168010952Y-91154285D01*
X168058571Y-91201904D01*
X168153809Y-91249523D01*
%TO.C,21*%
X86304380Y-103378095D02*
X86352000Y-103425714D01*
X86399619Y-103520952D01*
X86399619Y-103759047D01*
X86352000Y-103854285D01*
X86304380Y-103901904D01*
X86209142Y-103949523D01*
X86113904Y-103949523D01*
X85971047Y-103901904D01*
X85399619Y-103330476D01*
X85399619Y-103949523D01*
X85399619Y-104901904D02*
X85399619Y-104330476D01*
X85399619Y-104616190D02*
X86399619Y-104616190D01*
X86256761Y-104520952D01*
X86161523Y-104425714D01*
X86113904Y-104330476D01*
X167677619Y-104901904D02*
X167630000Y-104854285D01*
X167582380Y-104759047D01*
X167582380Y-104520952D01*
X167630000Y-104425714D01*
X167677619Y-104378095D01*
X167772857Y-104330476D01*
X167868095Y-104330476D01*
X168010952Y-104378095D01*
X168582380Y-104949523D01*
X168582380Y-104330476D01*
X168582380Y-103378095D02*
X168582380Y-103949523D01*
X168582380Y-103663809D02*
X167582380Y-103663809D01*
X167725238Y-103759047D01*
X167820476Y-103854285D01*
X167868095Y-103949523D01*
%TO.C,8*%
X85971047Y-71024761D02*
X86018666Y-70929523D01*
X86066285Y-70881904D01*
X86161523Y-70834285D01*
X86209142Y-70834285D01*
X86304380Y-70881904D01*
X86352000Y-70929523D01*
X86399619Y-71024761D01*
X86399619Y-71215238D01*
X86352000Y-71310476D01*
X86304380Y-71358095D01*
X86209142Y-71405714D01*
X86161523Y-71405714D01*
X86066285Y-71358095D01*
X86018666Y-71310476D01*
X85971047Y-71215238D01*
X85971047Y-71024761D01*
X85923428Y-70929523D01*
X85875809Y-70881904D01*
X85780571Y-70834285D01*
X85590095Y-70834285D01*
X85494857Y-70881904D01*
X85447238Y-70929523D01*
X85399619Y-71024761D01*
X85399619Y-71215238D01*
X85447238Y-71310476D01*
X85494857Y-71358095D01*
X85590095Y-71405714D01*
X85780571Y-71405714D01*
X85875809Y-71358095D01*
X85923428Y-71310476D01*
X85971047Y-71215238D01*
X168010952Y-71215238D02*
X167963333Y-71310476D01*
X167915714Y-71358095D01*
X167820476Y-71405714D01*
X167772857Y-71405714D01*
X167677619Y-71358095D01*
X167630000Y-71310476D01*
X167582380Y-71215238D01*
X167582380Y-71024761D01*
X167630000Y-70929523D01*
X167677619Y-70881904D01*
X167772857Y-70834285D01*
X167820476Y-70834285D01*
X167915714Y-70881904D01*
X167963333Y-70929523D01*
X168010952Y-71024761D01*
X168010952Y-71215238D01*
X168058571Y-71310476D01*
X168106190Y-71358095D01*
X168201428Y-71405714D01*
X168391904Y-71405714D01*
X168487142Y-71358095D01*
X168534761Y-71310476D01*
X168582380Y-71215238D01*
X168582380Y-71024761D01*
X168534761Y-70929523D01*
X168487142Y-70881904D01*
X168391904Y-70834285D01*
X168201428Y-70834285D01*
X168106190Y-70881904D01*
X168058571Y-70929523D01*
X168010952Y-71024761D01*
%TO.C,13*%
X85399619Y-83629523D02*
X85399619Y-83058095D01*
X85399619Y-83343809D02*
X86399619Y-83343809D01*
X86256761Y-83248571D01*
X86161523Y-83153333D01*
X86113904Y-83058095D01*
X86399619Y-83962857D02*
X86399619Y-84581904D01*
X86018666Y-84248571D01*
X86018666Y-84391428D01*
X85971047Y-84486666D01*
X85923428Y-84534285D01*
X85828190Y-84581904D01*
X85590095Y-84581904D01*
X85494857Y-84534285D01*
X85447238Y-84486666D01*
X85399619Y-84391428D01*
X85399619Y-84105714D01*
X85447238Y-84010476D01*
X85494857Y-83962857D01*
X168582380Y-84010476D02*
X168582380Y-84581904D01*
X168582380Y-84296190D02*
X167582380Y-84296190D01*
X167725238Y-84391428D01*
X167820476Y-84486666D01*
X167868095Y-84581904D01*
X167582380Y-83677142D02*
X167582380Y-83058095D01*
X167963333Y-83391428D01*
X167963333Y-83248571D01*
X168010952Y-83153333D01*
X168058571Y-83105714D01*
X168153809Y-83058095D01*
X168391904Y-83058095D01*
X168487142Y-83105714D01*
X168534761Y-83153333D01*
X168582380Y-83248571D01*
X168582380Y-83534285D01*
X168534761Y-83629523D01*
X168487142Y-83677142D01*
%TO.C,11*%
X85399619Y-78549523D02*
X85399619Y-77978095D01*
X85399619Y-78263809D02*
X86399619Y-78263809D01*
X86256761Y-78168571D01*
X86161523Y-78073333D01*
X86113904Y-77978095D01*
X85399619Y-79501904D02*
X85399619Y-78930476D01*
X85399619Y-79216190D02*
X86399619Y-79216190D01*
X86256761Y-79120952D01*
X86161523Y-79025714D01*
X86113904Y-78930476D01*
X168582380Y-78930476D02*
X168582380Y-79501904D01*
X168582380Y-79216190D02*
X167582380Y-79216190D01*
X167725238Y-79311428D01*
X167820476Y-79406666D01*
X167868095Y-79501904D01*
X168582380Y-77978095D02*
X168582380Y-78549523D01*
X168582380Y-78263809D02*
X167582380Y-78263809D01*
X167725238Y-78359047D01*
X167820476Y-78454285D01*
X167868095Y-78549523D01*
%TO.C,10*%
X85399619Y-76009523D02*
X85399619Y-75438095D01*
X85399619Y-75723809D02*
X86399619Y-75723809D01*
X86256761Y-75628571D01*
X86161523Y-75533333D01*
X86113904Y-75438095D01*
X86399619Y-76628571D02*
X86399619Y-76723809D01*
X86352000Y-76819047D01*
X86304380Y-76866666D01*
X86209142Y-76914285D01*
X86018666Y-76961904D01*
X85780571Y-76961904D01*
X85590095Y-76914285D01*
X85494857Y-76866666D01*
X85447238Y-76819047D01*
X85399619Y-76723809D01*
X85399619Y-76628571D01*
X85447238Y-76533333D01*
X85494857Y-76485714D01*
X85590095Y-76438095D01*
X85780571Y-76390476D01*
X86018666Y-76390476D01*
X86209142Y-76438095D01*
X86304380Y-76485714D01*
X86352000Y-76533333D01*
X86399619Y-76628571D01*
X168582380Y-76390476D02*
X168582380Y-76961904D01*
X168582380Y-76676190D02*
X167582380Y-76676190D01*
X167725238Y-76771428D01*
X167820476Y-76866666D01*
X167868095Y-76961904D01*
X167582380Y-75771428D02*
X167582380Y-75676190D01*
X167630000Y-75580952D01*
X167677619Y-75533333D01*
X167772857Y-75485714D01*
X167963333Y-75438095D01*
X168201428Y-75438095D01*
X168391904Y-75485714D01*
X168487142Y-75533333D01*
X168534761Y-75580952D01*
X168582380Y-75676190D01*
X168582380Y-75771428D01*
X168534761Y-75866666D01*
X168487142Y-75914285D01*
X168391904Y-75961904D01*
X168201428Y-76009523D01*
X167963333Y-76009523D01*
X167772857Y-75961904D01*
X167677619Y-75914285D01*
X167630000Y-75866666D01*
X167582380Y-75771428D01*
%TO.C,12*%
X85399619Y-81089523D02*
X85399619Y-80518095D01*
X85399619Y-80803809D02*
X86399619Y-80803809D01*
X86256761Y-80708571D01*
X86161523Y-80613333D01*
X86113904Y-80518095D01*
X86304380Y-81470476D02*
X86352000Y-81518095D01*
X86399619Y-81613333D01*
X86399619Y-81851428D01*
X86352000Y-81946666D01*
X86304380Y-81994285D01*
X86209142Y-82041904D01*
X86113904Y-82041904D01*
X85971047Y-81994285D01*
X85399619Y-81422857D01*
X85399619Y-82041904D01*
X168582380Y-81470476D02*
X168582380Y-82041904D01*
X168582380Y-81756190D02*
X167582380Y-81756190D01*
X167725238Y-81851428D01*
X167820476Y-81946666D01*
X167868095Y-82041904D01*
X167677619Y-81089523D02*
X167630000Y-81041904D01*
X167582380Y-80946666D01*
X167582380Y-80708571D01*
X167630000Y-80613333D01*
X167677619Y-80565714D01*
X167772857Y-80518095D01*
X167868095Y-80518095D01*
X168010952Y-80565714D01*
X168582380Y-81137142D01*
X168582380Y-80518095D01*
%TO.C,9*%
X85399619Y-73469523D02*
X85399619Y-73660000D01*
X85447238Y-73755238D01*
X85494857Y-73802857D01*
X85637714Y-73898095D01*
X85828190Y-73945714D01*
X86209142Y-73945714D01*
X86304380Y-73898095D01*
X86352000Y-73850476D01*
X86399619Y-73755238D01*
X86399619Y-73564761D01*
X86352000Y-73469523D01*
X86304380Y-73421904D01*
X86209142Y-73374285D01*
X85971047Y-73374285D01*
X85875809Y-73421904D01*
X85828190Y-73469523D01*
X85780571Y-73564761D01*
X85780571Y-73755238D01*
X85828190Y-73850476D01*
X85875809Y-73898095D01*
X85971047Y-73945714D01*
X168582380Y-73850476D02*
X168582380Y-73660000D01*
X168534761Y-73564761D01*
X168487142Y-73517142D01*
X168344285Y-73421904D01*
X168153809Y-73374285D01*
X167772857Y-73374285D01*
X167677619Y-73421904D01*
X167630000Y-73469523D01*
X167582380Y-73564761D01*
X167582380Y-73755238D01*
X167630000Y-73850476D01*
X167677619Y-73898095D01*
X167772857Y-73945714D01*
X168010952Y-73945714D01*
X168106190Y-73898095D01*
X168153809Y-73850476D01*
X168201428Y-73755238D01*
X168201428Y-73564761D01*
X168153809Y-73469523D01*
X168106190Y-73421904D01*
X168010952Y-73374285D01*
%TO.C,14*%
X85399619Y-86169523D02*
X85399619Y-85598095D01*
X85399619Y-85883809D02*
X86399619Y-85883809D01*
X86256761Y-85788571D01*
X86161523Y-85693333D01*
X86113904Y-85598095D01*
X86066285Y-87026666D02*
X85399619Y-87026666D01*
X86447238Y-86788571D02*
X85732952Y-86550476D01*
X85732952Y-87169523D01*
X168582380Y-86074285D02*
X168582380Y-86645714D01*
X168582380Y-86360000D02*
X167582380Y-86360000D01*
X167725238Y-86455238D01*
X167820476Y-86550476D01*
X167868095Y-86645714D01*
%TO.C,7*%
X86399619Y-68246666D02*
X86399619Y-68913333D01*
X85399619Y-68484761D01*
X167582380Y-68913333D02*
X167582380Y-68246666D01*
X168582380Y-68675238D01*
%TO.C,6*%
X86399619Y-66230476D02*
X86399619Y-66040000D01*
X86352000Y-65944761D01*
X86304380Y-65897142D01*
X86161523Y-65801904D01*
X85971047Y-65754285D01*
X85590095Y-65754285D01*
X85494857Y-65801904D01*
X85447238Y-65849523D01*
X85399619Y-65944761D01*
X85399619Y-66135238D01*
X85447238Y-66230476D01*
X85494857Y-66278095D01*
X85590095Y-66325714D01*
X85828190Y-66325714D01*
X85923428Y-66278095D01*
X85971047Y-66230476D01*
X86018666Y-66135238D01*
X86018666Y-65944761D01*
X85971047Y-65849523D01*
X85923428Y-65801904D01*
X85828190Y-65754285D01*
X167582380Y-65849523D02*
X167582380Y-66040000D01*
X167630000Y-66135238D01*
X167677619Y-66182857D01*
X167820476Y-66278095D01*
X168010952Y-66325714D01*
X168391904Y-66325714D01*
X168487142Y-66278095D01*
X168534761Y-66230476D01*
X168582380Y-66135238D01*
X168582380Y-65944761D01*
X168534761Y-65849523D01*
X168487142Y-65801904D01*
X168391904Y-65754285D01*
X168153809Y-65754285D01*
X168058571Y-65801904D01*
X168010952Y-65849523D01*
X167963333Y-65944761D01*
X167963333Y-66135238D01*
X168010952Y-66230476D01*
X168058571Y-66278095D01*
X168153809Y-66325714D01*
%TO.C,5*%
X86399619Y-63738095D02*
X86399619Y-63261904D01*
X85923428Y-63214285D01*
X85971047Y-63261904D01*
X86018666Y-63357142D01*
X86018666Y-63595238D01*
X85971047Y-63690476D01*
X85923428Y-63738095D01*
X85828190Y-63785714D01*
X85590095Y-63785714D01*
X85494857Y-63738095D01*
X85447238Y-63690476D01*
X85399619Y-63595238D01*
X85399619Y-63357142D01*
X85447238Y-63261904D01*
X85494857Y-63214285D01*
X167582380Y-63261904D02*
X167582380Y-63738095D01*
X168058571Y-63785714D01*
X168010952Y-63738095D01*
X167963333Y-63642857D01*
X167963333Y-63404761D01*
X168010952Y-63309523D01*
X168058571Y-63261904D01*
X168153809Y-63214285D01*
X168391904Y-63214285D01*
X168487142Y-63261904D01*
X168534761Y-63309523D01*
X168582380Y-63404761D01*
X168582380Y-63642857D01*
X168534761Y-63738095D01*
X168487142Y-63785714D01*
%TO.C,4*%
X86066285Y-61150476D02*
X85399619Y-61150476D01*
X86447238Y-60912380D02*
X85732952Y-60674285D01*
X85732952Y-61293333D01*
X167915714Y-60769523D02*
X168582380Y-60769523D01*
X167534761Y-61007619D02*
X168249047Y-61245714D01*
X168249047Y-60626666D01*
%TO.C,3*%
X86399619Y-58086666D02*
X86399619Y-58705714D01*
X86018666Y-58372380D01*
X86018666Y-58515238D01*
X85971047Y-58610476D01*
X85923428Y-58658095D01*
X85828190Y-58705714D01*
X85590095Y-58705714D01*
X85494857Y-58658095D01*
X85447238Y-58610476D01*
X85399619Y-58515238D01*
X85399619Y-58229523D01*
X85447238Y-58134285D01*
X85494857Y-58086666D01*
X167582380Y-58753333D02*
X167582380Y-58134285D01*
X167963333Y-58467619D01*
X167963333Y-58324761D01*
X168010952Y-58229523D01*
X168058571Y-58181904D01*
X168153809Y-58134285D01*
X168391904Y-58134285D01*
X168487142Y-58181904D01*
X168534761Y-58229523D01*
X168582380Y-58324761D01*
X168582380Y-58610476D01*
X168534761Y-58705714D01*
X168487142Y-58753333D01*
%TO.C,2*%
X86304380Y-55594285D02*
X86352000Y-55641904D01*
X86399619Y-55737142D01*
X86399619Y-55975238D01*
X86352000Y-56070476D01*
X86304380Y-56118095D01*
X86209142Y-56165714D01*
X86113904Y-56165714D01*
X85971047Y-56118095D01*
X85399619Y-55546666D01*
X85399619Y-56165714D01*
X167677619Y-56165714D02*
X167630000Y-56118095D01*
X167582380Y-56022857D01*
X167582380Y-55784761D01*
X167630000Y-55689523D01*
X167677619Y-55641904D01*
X167772857Y-55594285D01*
X167868095Y-55594285D01*
X168010952Y-55641904D01*
X168582380Y-56213333D01*
X168582380Y-55594285D01*
%TO.C,1*%
X85399619Y-53625714D02*
X85399619Y-53054285D01*
X85399619Y-53340000D02*
X86399619Y-53340000D01*
X86256761Y-53244761D01*
X86161523Y-53149523D01*
X86113904Y-53054285D01*
X168582380Y-53054285D02*
X168582380Y-53625714D01*
X168582380Y-53340000D02*
X167582380Y-53340000D01*
X167725238Y-53435238D01*
X167820476Y-53530476D01*
X167868095Y-53625714D01*
%TO.C,+*%
X83439047Y-59971428D02*
X84200952Y-59971428D01*
X83820000Y-60352380D02*
X83820000Y-59590476D01*
X83439047Y-142801428D02*
X84200952Y-142801428D01*
X83820000Y-143182380D02*
X83820000Y-142420476D01*
%TO.C,GND*%
X173481904Y-60400000D02*
X173577142Y-60447619D01*
X173720000Y-60447619D01*
X173862857Y-60400000D01*
X173958095Y-60304761D01*
X174005714Y-60209523D01*
X174053333Y-60019047D01*
X174053333Y-59876190D01*
X174005714Y-59685714D01*
X173958095Y-59590476D01*
X173862857Y-59495238D01*
X173720000Y-59447619D01*
X173624761Y-59447619D01*
X173481904Y-59495238D01*
X173434285Y-59542857D01*
X173434285Y-59876190D01*
X173624761Y-59876190D01*
X173005714Y-59447619D02*
X173005714Y-60447619D01*
X172434285Y-59447619D01*
X172434285Y-60447619D01*
X171958095Y-59447619D02*
X171958095Y-60447619D01*
X171720000Y-60447619D01*
X171577142Y-60400000D01*
X171481904Y-60304761D01*
X171434285Y-60209523D01*
X171386666Y-60019047D01*
X171386666Y-59876190D01*
X171434285Y-59685714D01*
X171481904Y-59590476D01*
X171577142Y-59495238D01*
X171720000Y-59447619D01*
X171958095Y-59447619D01*
X171958095Y-142756000D02*
X171862857Y-142708380D01*
X171720000Y-142708380D01*
X171577142Y-142756000D01*
X171481904Y-142851238D01*
X171434285Y-142946476D01*
X171386666Y-143136952D01*
X171386666Y-143279809D01*
X171434285Y-143470285D01*
X171481904Y-143565523D01*
X171577142Y-143660761D01*
X171720000Y-143708380D01*
X171815238Y-143708380D01*
X171958095Y-143660761D01*
X172005714Y-143613142D01*
X172005714Y-143279809D01*
X171815238Y-143279809D01*
X172434285Y-143708380D02*
X172434285Y-142708380D01*
X173005714Y-143708380D01*
X173005714Y-142708380D01*
X173481904Y-143708380D02*
X173481904Y-142708380D01*
X173720000Y-142708380D01*
X173862857Y-142756000D01*
X173958095Y-142851238D01*
X174005714Y-142946476D01*
X174053333Y-143136952D01*
X174053333Y-143279809D01*
X174005714Y-143470285D01*
X173958095Y-143565523D01*
X173862857Y-143660761D01*
X173720000Y-143708380D01*
X173481904Y-143708380D01*
%TO.C,-*%
X174879047Y-59971428D02*
X175640952Y-59971428D01*
X174879047Y-143327428D02*
X175640952Y-143327428D01*
X78359047Y-59971428D02*
X79120952Y-59971428D01*
X78359047Y-142801428D02*
X79120952Y-142801428D01*
%TO.C,GND*%
X82041904Y-60400000D02*
X82137142Y-60447619D01*
X82280000Y-60447619D01*
X82422857Y-60400000D01*
X82518095Y-60304761D01*
X82565714Y-60209523D01*
X82613333Y-60019047D01*
X82613333Y-59876190D01*
X82565714Y-59685714D01*
X82518095Y-59590476D01*
X82422857Y-59495238D01*
X82280000Y-59447619D01*
X82184761Y-59447619D01*
X82041904Y-59495238D01*
X81994285Y-59542857D01*
X81994285Y-59876190D01*
X82184761Y-59876190D01*
X81565714Y-59447619D02*
X81565714Y-60447619D01*
X80994285Y-59447619D01*
X80994285Y-60447619D01*
X80518095Y-59447619D02*
X80518095Y-60447619D01*
X80280000Y-60447619D01*
X80137142Y-60400000D01*
X80041904Y-60304761D01*
X79994285Y-60209523D01*
X79946666Y-60019047D01*
X79946666Y-59876190D01*
X79994285Y-59685714D01*
X80041904Y-59590476D01*
X80137142Y-59495238D01*
X80280000Y-59447619D01*
X80518095Y-59447619D01*
X80518095Y-142230000D02*
X80422857Y-142182380D01*
X80280000Y-142182380D01*
X80137142Y-142230000D01*
X80041904Y-142325238D01*
X79994285Y-142420476D01*
X79946666Y-142610952D01*
X79946666Y-142753809D01*
X79994285Y-142944285D01*
X80041904Y-143039523D01*
X80137142Y-143134761D01*
X80280000Y-143182380D01*
X80375238Y-143182380D01*
X80518095Y-143134761D01*
X80565714Y-143087142D01*
X80565714Y-142753809D01*
X80375238Y-142753809D01*
X80994285Y-143182380D02*
X80994285Y-142182380D01*
X81565714Y-143182380D01*
X81565714Y-142182380D01*
X82041904Y-143182380D02*
X82041904Y-142182380D01*
X82280000Y-142182380D01*
X82422857Y-142230000D01*
X82518095Y-142325238D01*
X82565714Y-142420476D01*
X82613333Y-142610952D01*
X82613333Y-142753809D01*
X82565714Y-142944285D01*
X82518095Y-143039523D01*
X82422857Y-143134761D01*
X82280000Y-143182380D01*
X82041904Y-143182380D01*
%TO.C,+*%
X169799047Y-59971428D02*
X170560952Y-59971428D01*
X170180000Y-60352380D02*
X170180000Y-59590476D01*
X169799047Y-143327428D02*
X170560952Y-143327428D01*
X170180000Y-143708380D02*
X170180000Y-142946476D01*
%TO.C,*%
%TO.C,1*%
X171812857Y-148402523D02*
X171087142Y-148402523D01*
X171450000Y-148402523D02*
X171450000Y-147132523D01*
X171329047Y-147313952D01*
X171208095Y-147434904D01*
X171087142Y-147495380D01*
%TO.C,*%
%TD*%
M02*
