M48
; DRILL file {KiCad (5.1.9)-1} date 01/10/21 16:32:51
; FORMAT={-:-/ absolute / inch / decimal}
; #@! TF.CreationDate,2021-01-10T16:32:51+01:00
; #@! TF.GenerationSoftware,Kicad,Pcbnew,(5.1.9)-1
; #@! TF.FileFunction,Plated,1,2,PTH
FMAT,2
INCH
T1C0.0394
T2C0.1260
%
G90
G05
T1
X3.1Y-2.45
X3.1Y-2.55
X3.1Y-2.65
X3.1Y-2.75
X3.1Y-2.85
X3.1Y-2.95
X3.1Y-3.05
X3.1Y-3.15
X3.1Y-3.25
X3.1Y-3.35
X3.1Y-3.45
X3.1Y-3.55
X3.1Y-3.65
X3.1Y-3.75
X3.1Y-3.85
X3.1Y-3.95
X3.1Y-4.05
X3.1Y-4.15
X3.1Y-4.25
X3.1Y-4.35
X3.1Y-4.45
X3.1Y-4.55
X3.1Y-4.65
X3.1Y-4.75
X3.1Y-4.85
X3.1Y-4.95
X3.1Y-5.05
X3.1Y-5.15
X3.1Y-5.25
X3.1Y-5.35
X3.1Y-5.45
X3.1Y-5.55
X3.2Y-2.45
X3.2Y-2.55
X3.2Y-2.65
X3.2Y-2.75
X3.2Y-2.85
X3.2Y-2.95
X3.2Y-3.05
X3.2Y-3.15
X3.2Y-3.25
X3.2Y-3.35
X3.2Y-3.45
X3.2Y-3.55
X3.2Y-3.65
X3.2Y-3.75
X3.2Y-3.85
X3.2Y-3.95
X3.2Y-4.05
X3.2Y-4.15
X3.2Y-4.25
X3.2Y-4.35
X3.2Y-4.45
X3.2Y-4.55
X3.2Y-4.65
X3.2Y-4.75
X3.2Y-4.85
X3.2Y-4.95
X3.2Y-5.05
X3.2Y-5.15
X3.2Y-5.25
X3.2Y-5.35
X3.2Y-5.45
X3.2Y-5.55
X3.3Y-2.45
X3.3Y-2.55
X3.3Y-2.65
X3.3Y-2.75
X3.3Y-2.85
X3.3Y-2.95
X3.3Y-3.05
X3.3Y-3.15
X3.3Y-3.25
X3.3Y-3.35
X3.3Y-3.45
X3.3Y-3.55
X3.3Y-3.65
X3.3Y-3.75
X3.3Y-3.85
X3.3Y-3.95
X3.3Y-4.05
X3.3Y-4.15
X3.3Y-4.25
X3.3Y-4.35
X3.3Y-4.45
X3.3Y-4.55
X3.3Y-4.65
X3.3Y-4.75
X3.3Y-4.85
X3.3Y-4.95
X3.3Y-5.05
X3.3Y-5.15
X3.3Y-5.25
X3.3Y-5.35
X3.3Y-5.45
X3.3Y-5.55
X3.45Y-2.1
X3.45Y-2.2
X3.45Y-2.3
X3.45Y-2.4
X3.45Y-2.5
X3.45Y-2.6
X3.45Y-2.7
X3.45Y-2.8
X3.45Y-2.9
X3.45Y-3.0
X3.45Y-3.1
X3.45Y-3.2
X3.45Y-3.3
X3.45Y-3.4
X3.45Y-3.5
X3.45Y-3.6
X3.45Y-3.7
X3.45Y-3.8
X3.45Y-3.9
X3.45Y-4.0
X3.45Y-4.1
X3.45Y-4.2
X3.45Y-4.3
X3.45Y-4.4
X3.45Y-4.5
X3.45Y-4.6
X3.45Y-4.7
X3.45Y-4.8
X3.45Y-4.9
X3.45Y-5.0
X3.45Y-5.1
X3.45Y-5.2
X3.45Y-5.3
X3.45Y-5.4
X3.45Y-5.5
X3.45Y-5.6
X3.45Y-5.7
X3.45Y-5.8
X3.55Y-2.1
X3.55Y-2.2
X3.55Y-2.3
X3.55Y-2.4
X3.55Y-2.5
X3.55Y-2.6
X3.55Y-2.7
X3.55Y-2.8
X3.55Y-2.9
X3.55Y-3.0
X3.55Y-3.1
X3.55Y-3.2
X3.55Y-3.3
X3.55Y-3.4
X3.55Y-3.5
X3.55Y-3.6
X3.55Y-3.7
X3.55Y-3.8
X3.55Y-3.9
X3.55Y-4.0
X3.55Y-4.1
X3.55Y-4.2
X3.55Y-4.3
X3.55Y-4.4
X3.55Y-4.5
X3.55Y-4.6
X3.55Y-4.7
X3.55Y-4.8
X3.55Y-4.9
X3.55Y-5.0
X3.55Y-5.1
X3.55Y-5.2
X3.55Y-5.3
X3.55Y-5.4
X3.55Y-5.5
X3.55Y-5.6
X3.55Y-5.7
X3.55Y-5.8
X3.65Y-2.1
X3.65Y-2.2
X3.65Y-2.3
X3.65Y-2.4
X3.65Y-2.5
X3.65Y-2.6
X3.65Y-2.7
X3.65Y-2.8
X3.65Y-2.9
X3.65Y-3.0
X3.65Y-3.1
X3.65Y-3.2
X3.65Y-3.3
X3.65Y-3.4
X3.65Y-3.5
X3.65Y-3.6
X3.65Y-3.7
X3.65Y-3.8
X3.65Y-3.9
X3.65Y-4.0
X3.65Y-4.1
X3.65Y-4.2
X3.65Y-4.3
X3.65Y-4.4
X3.65Y-4.5
X3.65Y-4.6
X3.65Y-4.7
X3.65Y-4.8
X3.65Y-4.9
X3.65Y-5.0
X3.65Y-5.1
X3.65Y-5.2
X3.65Y-5.3
X3.65Y-5.4
X3.65Y-5.5
X3.65Y-5.6
X3.65Y-5.7
X3.65Y-5.8
X3.75Y-2.1
X3.75Y-2.2
X3.75Y-2.3
X3.75Y-2.4
X3.75Y-2.5
X3.75Y-2.6
X3.75Y-2.7
X3.75Y-2.8
X3.75Y-2.9
X3.75Y-3.0
X3.75Y-3.1
X3.75Y-3.2
X3.75Y-3.3
X3.75Y-3.4
X3.75Y-3.5
X3.75Y-3.6
X3.75Y-3.7
X3.75Y-3.8
X3.75Y-3.9
X3.75Y-4.0
X3.75Y-4.1
X3.75Y-4.2
X3.75Y-4.3
X3.75Y-4.4
X3.75Y-4.5
X3.75Y-4.6
X3.75Y-4.7
X3.75Y-4.8
X3.75Y-4.9
X3.75Y-5.0
X3.75Y-5.1
X3.75Y-5.2
X3.75Y-5.3
X3.75Y-5.4
X3.75Y-5.5
X3.75Y-5.6
X3.75Y-5.7
X3.75Y-5.8
X3.85Y-2.1
X3.85Y-2.2
X3.85Y-2.3
X3.85Y-2.4
X3.85Y-2.5
X3.85Y-2.6
X3.85Y-2.7
X3.85Y-2.8
X3.85Y-2.9
X3.85Y-3.0
X3.85Y-3.1
X3.85Y-3.2
X3.85Y-3.3
X3.85Y-3.4
X3.85Y-3.5
X3.85Y-3.6
X3.85Y-3.7
X3.85Y-3.8
X3.85Y-3.9
X3.85Y-4.0
X3.85Y-4.1
X3.85Y-4.2
X3.85Y-4.3
X3.85Y-4.4
X3.85Y-4.5
X3.85Y-4.6
X3.85Y-4.7
X3.85Y-4.8
X3.85Y-4.9
X3.85Y-5.0
X3.85Y-5.1
X3.85Y-5.2
X3.85Y-5.3
X3.85Y-5.4
X3.85Y-5.5
X3.85Y-5.6
X3.85Y-5.7
X3.85Y-5.8
X3.95Y-2.1
X3.95Y-2.2
X3.95Y-2.3
X3.95Y-2.4
X3.95Y-2.5
X3.95Y-2.6
X3.95Y-2.7
X3.95Y-2.8
X3.95Y-2.9
X3.95Y-3.0
X3.95Y-3.1
X3.95Y-3.2
X3.95Y-3.3
X3.95Y-3.4
X3.95Y-3.5
X3.95Y-3.6
X3.95Y-3.7
X3.95Y-3.8
X3.95Y-3.9
X3.95Y-4.0
X3.95Y-4.1
X3.95Y-4.2
X3.95Y-4.3
X3.95Y-4.4
X3.95Y-4.5
X3.95Y-4.6
X3.95Y-4.7
X3.95Y-4.8
X3.95Y-4.9
X3.95Y-5.0
X3.95Y-5.1
X3.95Y-5.2
X3.95Y-5.3
X3.95Y-5.4
X3.95Y-5.5
X3.95Y-5.6
X3.95Y-5.7
X3.95Y-5.8
X4.05Y-2.1
X4.05Y-2.2
X4.05Y-2.3
X4.05Y-2.4
X4.05Y-2.5
X4.05Y-2.6
X4.05Y-2.7
X4.05Y-2.8
X4.05Y-2.9
X4.05Y-3.0
X4.05Y-3.1
X4.05Y-3.2
X4.05Y-3.3
X4.05Y-3.4
X4.05Y-3.5
X4.05Y-3.6
X4.05Y-3.7
X4.05Y-3.8
X4.05Y-3.9
X4.05Y-4.0
X4.05Y-4.1
X4.05Y-4.2
X4.05Y-4.3
X4.05Y-4.4
X4.05Y-4.5
X4.05Y-4.6
X4.05Y-4.7
X4.05Y-4.8
X4.05Y-4.9
X4.05Y-5.0
X4.05Y-5.1
X4.05Y-5.2
X4.05Y-5.3
X4.05Y-5.4
X4.05Y-5.5
X4.05Y-5.6
X4.05Y-5.7
X4.05Y-5.8
X4.15Y-2.1
X4.15Y-2.2
X4.15Y-2.3
X4.15Y-2.4
X4.15Y-2.5
X4.15Y-2.6
X4.15Y-2.7
X4.15Y-2.8
X4.15Y-2.9
X4.15Y-3.0
X4.15Y-3.1
X4.15Y-3.2
X4.15Y-3.3
X4.15Y-3.4
X4.15Y-3.5
X4.15Y-3.6
X4.15Y-3.7
X4.15Y-3.8
X4.15Y-3.9
X4.15Y-4.0
X4.15Y-4.1
X4.15Y-4.2
X4.15Y-4.3
X4.15Y-4.4
X4.15Y-4.5
X4.15Y-4.6
X4.15Y-4.7
X4.15Y-4.8
X4.15Y-4.9
X4.15Y-5.0
X4.15Y-5.1
X4.15Y-5.2
X4.15Y-5.3
X4.15Y-5.4
X4.15Y-5.5
X4.15Y-5.6
X4.15Y-5.7
X4.15Y-5.8
X4.25Y-2.1
X4.25Y-2.2
X4.25Y-2.3
X4.25Y-2.4
X4.25Y-2.5
X4.25Y-2.6
X4.25Y-2.7
X4.25Y-2.8
X4.25Y-2.9
X4.25Y-3.0
X4.25Y-3.1
X4.25Y-3.2
X4.25Y-3.3
X4.25Y-3.4
X4.25Y-3.5
X4.25Y-3.6
X4.25Y-3.7
X4.25Y-3.8
X4.25Y-3.9
X4.25Y-4.0
X4.25Y-4.1
X4.25Y-4.2
X4.25Y-4.3
X4.25Y-4.4
X4.25Y-4.5
X4.25Y-4.6
X4.25Y-4.7
X4.25Y-4.8
X4.25Y-4.9
X4.25Y-5.0
X4.25Y-5.1
X4.25Y-5.2
X4.25Y-5.3
X4.25Y-5.4
X4.25Y-5.5
X4.25Y-5.6
X4.25Y-5.7
X4.25Y-5.8
X4.35Y-2.1
X4.35Y-2.2
X4.35Y-2.3
X4.35Y-2.4
X4.35Y-2.5
X4.35Y-2.6
X4.35Y-2.7
X4.35Y-2.8
X4.35Y-2.9
X4.35Y-3.0
X4.35Y-3.1
X4.35Y-3.2
X4.35Y-3.3
X4.35Y-3.4
X4.35Y-3.5
X4.35Y-3.6
X4.35Y-3.7
X4.35Y-3.8
X4.35Y-3.9
X4.35Y-4.0
X4.35Y-4.1
X4.35Y-4.2
X4.35Y-4.3
X4.35Y-4.4
X4.35Y-4.5
X4.35Y-4.6
X4.35Y-4.7
X4.35Y-4.8
X4.35Y-4.9
X4.35Y-5.0
X4.35Y-5.1
X4.35Y-5.2
X4.35Y-5.3
X4.35Y-5.4
X4.35Y-5.5
X4.35Y-5.6
X4.35Y-5.7
X4.35Y-5.8
X4.45Y-2.1
X4.45Y-2.2
X4.45Y-2.3
X4.45Y-2.4
X4.45Y-2.5
X4.45Y-2.6
X4.45Y-2.7
X4.45Y-2.8
X4.45Y-2.9
X4.45Y-3.0
X4.45Y-3.1
X4.45Y-3.2
X4.45Y-3.3
X4.45Y-3.4
X4.45Y-3.5
X4.45Y-3.6
X4.45Y-3.7
X4.45Y-3.8
X4.45Y-3.9
X4.45Y-4.0
X4.45Y-4.1
X4.45Y-4.2
X4.45Y-4.3
X4.45Y-4.4
X4.45Y-4.5
X4.45Y-4.6
X4.45Y-4.7
X4.45Y-4.8
X4.45Y-4.9
X4.45Y-5.0
X4.45Y-5.1
X4.45Y-5.2
X4.45Y-5.3
X4.45Y-5.4
X4.45Y-5.5
X4.45Y-5.6
X4.45Y-5.7
X4.45Y-5.8
X4.55Y-2.1
X4.55Y-2.2
X4.55Y-2.3
X4.55Y-2.4
X4.55Y-2.5
X4.55Y-2.6
X4.55Y-2.7
X4.55Y-2.8
X4.55Y-2.9
X4.55Y-3.0
X4.55Y-3.1
X4.55Y-3.2
X4.55Y-3.3
X4.55Y-3.4
X4.55Y-3.5
X4.55Y-3.6
X4.55Y-3.7
X4.55Y-3.8
X4.55Y-3.9
X4.55Y-4.0
X4.55Y-4.1
X4.55Y-4.2
X4.55Y-4.3
X4.55Y-4.4
X4.55Y-4.5
X4.55Y-4.6
X4.55Y-4.7
X4.55Y-4.8
X4.55Y-4.9
X4.55Y-5.0
X4.55Y-5.1
X4.55Y-5.2
X4.55Y-5.3
X4.55Y-5.4
X4.55Y-5.5
X4.55Y-5.6
X4.55Y-5.7
X4.55Y-5.8
X4.65Y-2.1
X4.65Y-2.2
X4.65Y-2.3
X4.65Y-2.4
X4.65Y-2.5
X4.65Y-2.6
X4.65Y-2.7
X4.65Y-2.8
X4.65Y-2.9
X4.65Y-3.0
X4.65Y-3.1
X4.65Y-3.2
X4.65Y-3.3
X4.65Y-3.4
X4.65Y-3.5
X4.65Y-3.6
X4.65Y-3.7
X4.65Y-3.8
X4.65Y-3.9
X4.65Y-4.0
X4.65Y-4.1
X4.65Y-4.2
X4.65Y-4.3
X4.65Y-4.4
X4.65Y-4.5
X4.65Y-4.6
X4.65Y-4.7
X4.65Y-4.8
X4.65Y-4.9
X4.65Y-5.0
X4.65Y-5.1
X4.65Y-5.2
X4.65Y-5.3
X4.65Y-5.4
X4.65Y-5.5
X4.65Y-5.6
X4.65Y-5.7
X4.65Y-5.8
X4.75Y-2.1
X4.75Y-2.2
X4.75Y-2.3
X4.75Y-2.4
X4.75Y-2.5
X4.75Y-2.6
X4.75Y-2.7
X4.75Y-2.8
X4.75Y-2.9
X4.75Y-3.0
X4.75Y-3.1
X4.75Y-3.2
X4.75Y-3.3
X4.75Y-3.4
X4.75Y-3.5
X4.75Y-3.6
X4.75Y-3.7
X4.75Y-3.8
X4.75Y-3.9
X4.75Y-4.0
X4.75Y-4.1
X4.75Y-4.2
X4.75Y-4.3
X4.75Y-4.4
X4.75Y-4.5
X4.75Y-4.6
X4.75Y-4.7
X4.75Y-4.8
X4.75Y-4.9
X4.75Y-5.0
X4.75Y-5.1
X4.75Y-5.2
X4.75Y-5.3
X4.75Y-5.4
X4.75Y-5.5
X4.75Y-5.6
X4.75Y-5.7
X4.75Y-5.8
X4.85Y-2.1
X4.85Y-2.2
X4.85Y-2.3
X4.85Y-2.4
X4.85Y-2.5
X4.85Y-2.6
X4.85Y-2.7
X4.85Y-2.8
X4.85Y-2.9
X4.85Y-3.0
X4.85Y-3.1
X4.85Y-3.2
X4.85Y-3.3
X4.85Y-3.4
X4.85Y-3.5
X4.85Y-3.6
X4.85Y-3.7
X4.85Y-3.8
X4.85Y-3.9
X4.85Y-4.0
X4.85Y-4.1
X4.85Y-4.2
X4.85Y-4.3
X4.85Y-4.4
X4.85Y-4.5
X4.85Y-4.6
X4.85Y-4.7
X4.85Y-4.8
X4.85Y-4.9
X4.85Y-5.0
X4.85Y-5.1
X4.85Y-5.2
X4.85Y-5.3
X4.85Y-5.4
X4.85Y-5.5
X4.85Y-5.6
X4.85Y-5.7
X4.85Y-5.8
X4.95Y-2.1
X4.95Y-2.2
X4.95Y-2.3
X4.95Y-2.4
X4.95Y-2.5
X4.95Y-2.6
X4.95Y-2.7
X4.95Y-2.8
X4.95Y-2.9
X4.95Y-3.0
X4.95Y-3.1
X4.95Y-3.2
X4.95Y-3.3
X4.95Y-3.4
X4.95Y-3.5
X4.95Y-3.6
X4.95Y-3.7
X4.95Y-3.8
X4.95Y-3.9
X4.95Y-4.0
X4.95Y-4.1
X4.95Y-4.2
X4.95Y-4.3
X4.95Y-4.4
X4.95Y-4.5
X4.95Y-4.6
X4.95Y-4.7
X4.95Y-4.8
X4.95Y-4.9
X4.95Y-5.0
X4.95Y-5.1
X4.95Y-5.2
X4.95Y-5.3
X4.95Y-5.4
X4.95Y-5.5
X4.95Y-5.6
X4.95Y-5.7
X4.95Y-5.8
X5.05Y-2.1
X5.05Y-2.2
X5.05Y-2.3
X5.05Y-2.4
X5.05Y-2.5
X5.05Y-2.6
X5.05Y-2.7
X5.05Y-2.8
X5.05Y-2.9
X5.05Y-3.0
X5.05Y-3.1
X5.05Y-3.2
X5.05Y-3.3
X5.05Y-3.4
X5.05Y-3.5
X5.05Y-3.6
X5.05Y-3.7
X5.05Y-3.8
X5.05Y-3.9
X5.05Y-4.0
X5.05Y-4.1
X5.05Y-4.2
X5.05Y-4.3
X5.05Y-4.4
X5.05Y-4.5
X5.05Y-4.6
X5.05Y-4.7
X5.05Y-4.8
X5.05Y-4.9
X5.05Y-5.0
X5.05Y-5.1
X5.05Y-5.2
X5.05Y-5.3
X5.05Y-5.4
X5.05Y-5.5
X5.05Y-5.6
X5.05Y-5.7
X5.05Y-5.8
X5.15Y-2.1
X5.15Y-2.2
X5.15Y-2.3
X5.15Y-2.4
X5.15Y-2.5
X5.15Y-2.6
X5.15Y-2.7
X5.15Y-2.8
X5.15Y-2.9
X5.15Y-3.0
X5.15Y-3.1
X5.15Y-3.2
X5.15Y-3.3
X5.15Y-3.4
X5.15Y-3.5
X5.15Y-3.6
X5.15Y-3.7
X5.15Y-3.8
X5.15Y-3.9
X5.15Y-4.0
X5.15Y-4.1
X5.15Y-4.2
X5.15Y-4.3
X5.15Y-4.4
X5.15Y-4.5
X5.15Y-4.6
X5.15Y-4.7
X5.15Y-4.8
X5.15Y-4.9
X5.15Y-5.0
X5.15Y-5.1
X5.15Y-5.2
X5.15Y-5.3
X5.15Y-5.4
X5.15Y-5.5
X5.15Y-5.6
X5.15Y-5.7
X5.15Y-5.8
X5.25Y-2.1
X5.25Y-2.2
X5.25Y-2.3
X5.25Y-2.4
X5.25Y-2.5
X5.25Y-2.6
X5.25Y-2.7
X5.25Y-2.8
X5.25Y-2.9
X5.25Y-3.0
X5.25Y-3.1
X5.25Y-3.2
X5.25Y-3.3
X5.25Y-3.4
X5.25Y-3.5
X5.25Y-3.6
X5.25Y-3.7
X5.25Y-3.8
X5.25Y-3.9
X5.25Y-4.0
X5.25Y-4.1
X5.25Y-4.2
X5.25Y-4.3
X5.25Y-4.4
X5.25Y-4.5
X5.25Y-4.6
X5.25Y-4.7
X5.25Y-4.8
X5.25Y-4.9
X5.25Y-5.0
X5.25Y-5.1
X5.25Y-5.2
X5.25Y-5.3
X5.25Y-5.4
X5.25Y-5.5
X5.25Y-5.6
X5.25Y-5.7
X5.25Y-5.8
X5.35Y-2.1
X5.35Y-2.2
X5.35Y-2.3
X5.35Y-2.4
X5.35Y-2.5
X5.35Y-2.6
X5.35Y-2.7
X5.35Y-2.8
X5.35Y-2.9
X5.35Y-3.0
X5.35Y-3.1
X5.35Y-3.2
X5.35Y-3.3
X5.35Y-3.4
X5.35Y-3.5
X5.35Y-3.6
X5.35Y-3.7
X5.35Y-3.8
X5.35Y-3.9
X5.35Y-4.0
X5.35Y-4.1
X5.35Y-4.2
X5.35Y-4.3
X5.35Y-4.4
X5.35Y-4.5
X5.35Y-4.6
X5.35Y-4.7
X5.35Y-4.8
X5.35Y-4.9
X5.35Y-5.0
X5.35Y-5.1
X5.35Y-5.2
X5.35Y-5.3
X5.35Y-5.4
X5.35Y-5.5
X5.35Y-5.6
X5.35Y-5.7
X5.35Y-5.8
X5.45Y-2.1
X5.45Y-2.2
X5.45Y-2.3
X5.45Y-2.4
X5.45Y-2.5
X5.45Y-2.6
X5.45Y-2.7
X5.45Y-2.8
X5.45Y-2.9
X5.45Y-3.0
X5.45Y-3.1
X5.45Y-3.2
X5.45Y-3.3
X5.45Y-3.4
X5.45Y-3.5
X5.45Y-3.6
X5.45Y-3.7
X5.45Y-3.8
X5.45Y-3.9
X5.45Y-4.0
X5.45Y-4.1
X5.45Y-4.2
X5.45Y-4.3
X5.45Y-4.4
X5.45Y-4.5
X5.45Y-4.6
X5.45Y-4.7
X5.45Y-4.8
X5.45Y-4.9
X5.45Y-5.0
X5.45Y-5.1
X5.45Y-5.2
X5.45Y-5.3
X5.45Y-5.4
X5.45Y-5.5
X5.45Y-5.6
X5.45Y-5.7
X5.45Y-5.8
X5.55Y-2.1
X5.55Y-2.2
X5.55Y-2.3
X5.55Y-2.4
X5.55Y-2.5
X5.55Y-2.6
X5.55Y-2.7
X5.55Y-2.8
X5.55Y-2.9
X5.55Y-3.0
X5.55Y-3.1
X5.55Y-3.2
X5.55Y-3.3
X5.55Y-3.4
X5.55Y-3.5
X5.55Y-3.6
X5.55Y-3.7
X5.55Y-3.8
X5.55Y-3.9
X5.55Y-4.0
X5.55Y-4.1
X5.55Y-4.2
X5.55Y-4.3
X5.55Y-4.4
X5.55Y-4.5
X5.55Y-4.6
X5.55Y-4.7
X5.55Y-4.8
X5.55Y-4.9
X5.55Y-5.0
X5.55Y-5.1
X5.55Y-5.2
X5.55Y-5.3
X5.55Y-5.4
X5.55Y-5.5
X5.55Y-5.6
X5.55Y-5.7
X5.55Y-5.8
X5.65Y-2.1
X5.65Y-2.2
X5.65Y-2.3
X5.65Y-2.4
X5.65Y-2.5
X5.65Y-2.6
X5.65Y-2.7
X5.65Y-2.8
X5.65Y-2.9
X5.65Y-3.0
X5.65Y-3.1
X5.65Y-3.2
X5.65Y-3.3
X5.65Y-3.4
X5.65Y-3.5
X5.65Y-3.6
X5.65Y-3.7
X5.65Y-3.8
X5.65Y-3.9
X5.65Y-4.0
X5.65Y-4.1
X5.65Y-4.2
X5.65Y-4.3
X5.65Y-4.4
X5.65Y-4.5
X5.65Y-4.6
X5.65Y-4.7
X5.65Y-4.8
X5.65Y-4.9
X5.65Y-5.0
X5.65Y-5.1
X5.65Y-5.2
X5.65Y-5.3
X5.65Y-5.4
X5.65Y-5.5
X5.65Y-5.6
X5.65Y-5.7
X5.65Y-5.8
X5.75Y-2.1
X5.75Y-2.2
X5.75Y-2.3
X5.75Y-2.4
X5.75Y-2.5
X5.75Y-2.6
X5.75Y-2.7
X5.75Y-2.8
X5.75Y-2.9
X5.75Y-3.0
X5.75Y-3.1
X5.75Y-3.2
X5.75Y-3.3
X5.75Y-3.4
X5.75Y-3.5
X5.75Y-3.6
X5.75Y-3.7
X5.75Y-3.8
X5.75Y-3.9
X5.75Y-4.0
X5.75Y-4.1
X5.75Y-4.2
X5.75Y-4.3
X5.75Y-4.4
X5.75Y-4.5
X5.75Y-4.6
X5.75Y-4.7
X5.75Y-4.8
X5.75Y-4.9
X5.75Y-5.0
X5.75Y-5.1
X5.75Y-5.2
X5.75Y-5.3
X5.75Y-5.4
X5.75Y-5.5
X5.75Y-5.6
X5.75Y-5.7
X5.75Y-5.8
X5.85Y-2.1
X5.85Y-2.2
X5.85Y-2.3
X5.85Y-2.4
X5.85Y-2.5
X5.85Y-2.6
X5.85Y-2.7
X5.85Y-2.8
X5.85Y-2.9
X5.85Y-3.0
X5.85Y-3.1
X5.85Y-3.2
X5.85Y-3.3
X5.85Y-3.4
X5.85Y-3.5
X5.85Y-3.6
X5.85Y-3.7
X5.85Y-3.8
X5.85Y-3.9
X5.85Y-4.0
X5.85Y-4.1
X5.85Y-4.2
X5.85Y-4.3
X5.85Y-4.4
X5.85Y-4.5
X5.85Y-4.6
X5.85Y-4.7
X5.85Y-4.8
X5.85Y-4.9
X5.85Y-5.0
X5.85Y-5.1
X5.85Y-5.2
X5.85Y-5.3
X5.85Y-5.4
X5.85Y-5.5
X5.85Y-5.6
X5.85Y-5.7
X5.85Y-5.8
X5.95Y-2.1
X5.95Y-2.2
X5.95Y-2.3
X5.95Y-2.4
X5.95Y-2.5
X5.95Y-2.6
X5.95Y-2.7
X5.95Y-2.8
X5.95Y-2.9
X5.95Y-3.0
X5.95Y-3.1
X5.95Y-3.2
X5.95Y-3.3
X5.95Y-3.4
X5.95Y-3.5
X5.95Y-3.6
X5.95Y-3.7
X5.95Y-3.8
X5.95Y-3.9
X5.95Y-4.0
X5.95Y-4.1
X5.95Y-4.2
X5.95Y-4.3
X5.95Y-4.4
X5.95Y-4.5
X5.95Y-4.6
X5.95Y-4.7
X5.95Y-4.8
X5.95Y-4.9
X5.95Y-5.0
X5.95Y-5.1
X5.95Y-5.2
X5.95Y-5.3
X5.95Y-5.4
X5.95Y-5.5
X5.95Y-5.6
X5.95Y-5.7
X5.95Y-5.8
X6.05Y-2.1
X6.05Y-2.2
X6.05Y-2.3
X6.05Y-2.4
X6.05Y-2.5
X6.05Y-2.6
X6.05Y-2.7
X6.05Y-2.8
X6.05Y-2.9
X6.05Y-3.0
X6.05Y-3.1
X6.05Y-3.2
X6.05Y-3.3
X6.05Y-3.4
X6.05Y-3.5
X6.05Y-3.6
X6.05Y-3.7
X6.05Y-3.8
X6.05Y-3.9
X6.05Y-4.0
X6.05Y-4.1
X6.05Y-4.2
X6.05Y-4.3
X6.05Y-4.4
X6.05Y-4.5
X6.05Y-4.6
X6.05Y-4.7
X6.05Y-4.8
X6.05Y-4.9
X6.05Y-5.0
X6.05Y-5.1
X6.05Y-5.2
X6.05Y-5.3
X6.05Y-5.4
X6.05Y-5.5
X6.05Y-5.6
X6.05Y-5.7
X6.05Y-5.8
X6.15Y-2.1
X6.15Y-2.2
X6.15Y-2.3
X6.15Y-2.4
X6.15Y-2.5
X6.15Y-2.6
X6.15Y-2.7
X6.15Y-2.8
X6.15Y-2.9
X6.15Y-3.0
X6.15Y-3.1
X6.15Y-3.2
X6.15Y-3.3
X6.15Y-3.4
X6.15Y-3.5
X6.15Y-3.6
X6.15Y-3.7
X6.15Y-3.8
X6.15Y-3.9
X6.15Y-4.0
X6.15Y-4.1
X6.15Y-4.2
X6.15Y-4.3
X6.15Y-4.4
X6.15Y-4.5
X6.15Y-4.6
X6.15Y-4.7
X6.15Y-4.8
X6.15Y-4.9
X6.15Y-5.0
X6.15Y-5.1
X6.15Y-5.2
X6.15Y-5.3
X6.15Y-5.4
X6.15Y-5.5
X6.15Y-5.6
X6.15Y-5.7
X6.15Y-5.8
X6.25Y-2.1
X6.25Y-2.2
X6.25Y-2.3
X6.25Y-2.4
X6.25Y-2.5
X6.25Y-2.6
X6.25Y-2.7
X6.25Y-2.8
X6.25Y-2.9
X6.25Y-3.0
X6.25Y-3.1
X6.25Y-3.2
X6.25Y-3.3
X6.25Y-3.4
X6.25Y-3.5
X6.25Y-3.6
X6.25Y-3.7
X6.25Y-3.8
X6.25Y-3.9
X6.25Y-4.0
X6.25Y-4.1
X6.25Y-4.2
X6.25Y-4.3
X6.25Y-4.4
X6.25Y-4.5
X6.25Y-4.6
X6.25Y-4.7
X6.25Y-4.8
X6.25Y-4.9
X6.25Y-5.0
X6.25Y-5.1
X6.25Y-5.2
X6.25Y-5.3
X6.25Y-5.4
X6.25Y-5.5
X6.25Y-5.6
X6.25Y-5.7
X6.25Y-5.8
X6.35Y-2.1
X6.35Y-2.2
X6.35Y-2.3
X6.35Y-2.4
X6.35Y-2.5
X6.35Y-2.6
X6.35Y-2.7
X6.35Y-2.8
X6.35Y-2.9
X6.35Y-3.0
X6.35Y-3.1
X6.35Y-3.2
X6.35Y-3.3
X6.35Y-3.4
X6.35Y-3.5
X6.35Y-3.6
X6.35Y-3.7
X6.35Y-3.8
X6.35Y-3.9
X6.35Y-4.0
X6.35Y-4.1
X6.35Y-4.2
X6.35Y-4.3
X6.35Y-4.4
X6.35Y-4.5
X6.35Y-4.6
X6.35Y-4.7
X6.35Y-4.8
X6.35Y-4.9
X6.35Y-5.0
X6.35Y-5.1
X6.35Y-5.2
X6.35Y-5.3
X6.35Y-5.4
X6.35Y-5.5
X6.35Y-5.6
X6.35Y-5.7
X6.35Y-5.8
X6.45Y-2.1
X6.45Y-2.2
X6.45Y-2.3
X6.45Y-2.4
X6.45Y-2.5
X6.45Y-2.6
X6.45Y-2.7
X6.45Y-2.8
X6.45Y-2.9
X6.45Y-3.0
X6.45Y-3.1
X6.45Y-3.2
X6.45Y-3.3
X6.45Y-3.4
X6.45Y-3.5
X6.45Y-3.6
X6.45Y-3.7
X6.45Y-3.8
X6.45Y-3.9
X6.45Y-4.0
X6.45Y-4.1
X6.45Y-4.2
X6.45Y-4.3
X6.45Y-4.4
X6.45Y-4.5
X6.45Y-4.6
X6.45Y-4.7
X6.45Y-4.8
X6.45Y-4.9
X6.45Y-5.0
X6.45Y-5.1
X6.45Y-5.2
X6.45Y-5.3
X6.45Y-5.4
X6.45Y-5.5
X6.45Y-5.6
X6.45Y-5.7
X6.45Y-5.8
X6.55Y-2.1
X6.55Y-2.2
X6.55Y-2.3
X6.55Y-2.4
X6.55Y-2.5
X6.55Y-2.6
X6.55Y-2.7
X6.55Y-2.8
X6.55Y-2.9
X6.55Y-3.0
X6.55Y-3.1
X6.55Y-3.2
X6.55Y-3.3
X6.55Y-3.4
X6.55Y-3.5
X6.55Y-3.6
X6.55Y-3.7
X6.55Y-3.8
X6.55Y-3.9
X6.55Y-4.0
X6.55Y-4.1
X6.55Y-4.2
X6.55Y-4.3
X6.55Y-4.4
X6.55Y-4.5
X6.55Y-4.6
X6.55Y-4.7
X6.55Y-4.8
X6.55Y-4.9
X6.55Y-5.0
X6.55Y-5.1
X6.55Y-5.2
X6.55Y-5.3
X6.55Y-5.4
X6.55Y-5.5
X6.55Y-5.6
X6.55Y-5.7
X6.55Y-5.8
X6.7Y-2.45
X6.7Y-2.55
X6.7Y-2.65
X6.7Y-2.75
X6.7Y-2.85
X6.7Y-2.95
X6.7Y-3.05
X6.7Y-3.15
X6.7Y-3.25
X6.7Y-3.35
X6.7Y-3.45
X6.7Y-3.55
X6.7Y-3.65
X6.7Y-3.75
X6.7Y-3.85
X6.7Y-3.95
X6.7Y-4.05
X6.7Y-4.15
X6.7Y-4.25
X6.7Y-4.35
X6.7Y-4.45
X6.7Y-4.55
X6.7Y-4.65
X6.7Y-4.75
X6.7Y-4.85
X6.7Y-4.95
X6.7Y-5.05
X6.7Y-5.15
X6.7Y-5.25
X6.7Y-5.35
X6.7Y-5.45
X6.7Y-5.55
X6.8Y-2.45
X6.8Y-2.55
X6.8Y-2.65
X6.8Y-2.75
X6.8Y-2.85
X6.8Y-2.95
X6.8Y-3.05
X6.8Y-3.15
X6.8Y-3.25
X6.8Y-3.35
X6.8Y-3.45
X6.8Y-3.55
X6.8Y-3.65
X6.8Y-3.75
X6.8Y-3.85
X6.8Y-3.95
X6.8Y-4.05
X6.8Y-4.15
X6.8Y-4.25
X6.8Y-4.35
X6.8Y-4.45
X6.8Y-4.55
X6.8Y-4.65
X6.8Y-4.75
X6.8Y-4.85
X6.8Y-4.95
X6.8Y-5.05
X6.8Y-5.15
X6.8Y-5.25
X6.8Y-5.35
X6.8Y-5.45
X6.8Y-5.55
X6.9Y-2.45
X6.9Y-2.55
X6.9Y-2.65
X6.9Y-2.75
X6.9Y-2.85
X6.9Y-2.95
X6.9Y-3.05
X6.9Y-3.15
X6.9Y-3.25
X6.9Y-3.35
X6.9Y-3.45
X6.9Y-3.55
X6.9Y-3.65
X6.9Y-3.75
X6.9Y-3.85
X6.9Y-3.95
X6.9Y-4.05
X6.9Y-4.15
X6.9Y-4.25
X6.9Y-4.35
X6.9Y-4.45
X6.9Y-4.55
X6.9Y-4.65
X6.9Y-4.75
X6.9Y-4.85
X6.9Y-4.95
X6.9Y-5.05
X6.9Y-5.15
X6.9Y-5.25
X6.9Y-5.35
X6.9Y-5.45
X6.9Y-5.55
T2
X3.2Y-2.2
X3.2Y-5.8
X6.8Y-2.2
X6.8Y-5.8
T0
M30
